<mxfile host="65bd71144e">
    <diagram id="RvYWWdCxk7HEOzkrJcVP" name="Page-1">
        <mxGraphModel dx="1569" dy="882" grid="1" gridSize="10" guides="1" tooltips="1" connect="1" arrows="1" fold="1" page="1" pageScale="1" pageWidth="1169" pageHeight="827" math="0" shadow="0">
            <root>
                <mxCell id="0"/>
                <mxCell id="1" parent="0"/>
                <mxCell id="B11YAzN58tQJIFsV2nfx-1" value="" style="rounded=0;whiteSpace=wrap;html=1;movable=1;resizable=1;rotatable=1;deletable=1;editable=1;connectable=1;fillColor=none;" parent="1" vertex="1">
                    <mxGeometry x="47" y="80" width="443" height="120" as="geometry"/>
                </mxCell>
                <mxCell id="B11YAzN58tQJIFsV2nfx-2" value="Resource Group&lt;br&gt;rg-tfstate-alpha" style="aspect=fixed;html=1;points=[];align=left;image;fontSize=12;image=img/lib/mscae/ResourceGroup.svg;dashed=1;strokeWidth=2;fillColor=none;labelPosition=right;verticalLabelPosition=middle;verticalAlign=middle;" parent="1" vertex="1">
                    <mxGeometry x="7" y="48" width="40" height="32" as="geometry"/>
                </mxCell>
                <mxCell id="B11YAzN58tQJIFsV2nfx-3" value="" style="rounded=0;whiteSpace=wrap;html=1;movable=1;resizable=1;rotatable=1;deletable=1;editable=1;connectable=1;fillColor=none;" parent="1" vertex="1">
                    <mxGeometry x="40" y="282.6" width="537" height="477.4" as="geometry"/>
                </mxCell>
                <mxCell id="B11YAzN58tQJIFsV2nfx-4" value="Resource Group&lt;span style=&quot;text-align: left ; background-color: rgb(248 , 249 , 250)&quot;&gt;&lt;br&gt;rg-env-&amp;lt;environment&amp;gt;&lt;/span&gt;" style="aspect=fixed;html=1;points=[];align=left;image;fontSize=12;image=img/lib/mscae/ResourceGroup.svg;dashed=1;strokeWidth=2;fillColor=none;labelPosition=right;verticalLabelPosition=middle;verticalAlign=middle;" parent="1" vertex="1">
                    <mxGeometry x="7" y="248.6" width="40" height="32" as="geometry"/>
                </mxCell>
                <mxCell id="B11YAzN58tQJIFsV2nfx-10" style="edgeStyle=orthogonalEdgeStyle;rounded=0;orthogonalLoop=1;jettySize=auto;html=1;entryDx=0;entryDy=0;fontFamily=Lucida Console;endArrow=none;endFill=0;" parent="1" source="B11YAzN58tQJIFsV2nfx-6" target="B11YAzN58tQJIFsV2nfx-9" edge="1">
                    <mxGeometry relative="1" as="geometry">
                        <Array as="points">
                            <mxPoint x="307" y="155"/>
                        </Array>
                    </mxGeometry>
                </mxCell>
                <mxCell id="B11YAzN58tQJIFsV2nfx-6" value="Storage Account&#10;st&lt;setup-name&gt;&lt;increment&gt;" style="shape=image;verticalLabelPosition=middle;labelBackgroundColor=#ffffff;verticalAlign=middle;aspect=fixed;imageAspect=0;image=data:image/svg+xml,PHN2ZyB4bWxucz0iaHR0cDovL3d3dy53My5vcmcvMjAwMC9zdmciIHhtbG5zOnhsaW5rPSJodHRwOi8vd3d3LnczLm9yZy8xOTk5L3hsaW5rIiB2ZXJzaW9uPSIxLjEiIGlkPSJMYXllcl8xIiB4PSIwcHgiIHk9IjBweCIgd2lkdGg9IjUwcHgiIGhlaWdodD0iNTBweCIgdmlld0JveD0iMCAwIDUwIDUwIiBlbmFibGUtYmFja2dyb3VuZD0ibmV3IDAgMCA1MCA1MCIgeG1sOnNwYWNlPSJwcmVzZXJ2ZSI+JiN4YTs8cGF0aCBmaWxsPSIjM0UzRTNFIiBkPSJNNDQsNTBINmMtMy4zMTQsMC02LTIuNjg2LTYtNlY1aDUwdjM5QzUwLDQ3LjMxNCw0Ny4zMTQsNTAsNDQsNTB6Ii8+JiN4YTs8cmVjdCB4PSI0IiB5PSIxNiIgb3BhY2l0eT0iMC45IiBmaWxsPSIjRkNEMTE2IiB3aWR0aD0iNDIiIGhlaWdodD0iMTEiLz4mI3hhOzxyZWN0IHg9IjQiIHk9IjMxIiBmaWxsPSIjN0ZCQTAwIiB3aWR0aD0iNDIiIGhlaWdodD0iMTUiLz4mI3hhOzxyZWN0IHg9IjQiIHk9IjUiIG9wYWNpdHk9IjAuOSIgZmlsbD0iI0ZGRkZGRiIgd2lkdGg9IjQyIiBoZWlnaHQ9IjciLz4mI3hhOzxyZWN0IHg9IjQiIHk9IjMxIiBvcGFjaXR5PSIwLjMiIGZpbGw9IiNGRkZGRkYiIGVuYWJsZS1iYWNrZ3JvdW5kPSJuZXcgICAgIiB3aWR0aD0iNDIiIGhlaWdodD0iMiIvPiYjeGE7PHJlY3QgeD0iNCIgeT0iMTYiIG9wYWNpdHk9IjAuMyIgZmlsbD0iI0ZGRkZGRiIgZW5hYmxlLWJhY2tncm91bmQ9Im5ldyAgICAiIHdpZHRoPSI0MiIgaGVpZ2h0PSIyIi8+JiN4YTs8cGF0aCBvcGFjaXR5PSIwLjE1IiBmaWxsPSIjRkZGRkZGIiBlbmFibGUtYmFja2dyb3VuZD0ibmV3ICAgICIgZD0iTTAsNXY0Mi42OTNDMCw0OC45MDcsMC45ODUsNDkuOSwyLjE4OCw0OS45SDhMNDAsNUgweiIvPiYjeGE7PC9zdmc+;fontSize=12;align=left;labelPosition=right;" parent="1" vertex="1">
                    <mxGeometry x="287" y="90" width="40" height="40" as="geometry"/>
                </mxCell>
                <mxCell id="B11YAzN58tQJIFsV2nfx-9" value="Blob&#10;&quot;state&quot;" style="shape=image;verticalLabelPosition=middle;labelBackgroundColor=#ffffff;verticalAlign=middle;aspect=fixed;imageAspect=0;image=data:image/svg+xml,PHN2ZyB4bWxucz0iaHR0cDovL3d3dy53My5vcmcvMjAwMC9zdmciIHdpZHRoPSIxNyIgaGVpZ2h0PSIxMy42NjgwMDc4NTA2NDY5NzMiIHZpZXdCb3g9IjAuNSAyLjE2NTk5MjAyMTU2MDY2OSAxNyAxMy42NjgwMDc4NTA2NDY5NzMiPjxkZWZzPjxsaW5lYXJHcmFkaWVudCBpZD0iYjdmYTE2MzctZDllMS00YzI2LThmMjAtMWNhZTgxMmU3ZWViIiB4MT0iOSIgeTE9IjE1LjgzNCIgeDI9IjkiIHkyPSI1Ljc4OCIgZ3JhZGllbnRVbml0cz0idXNlclNwYWNlT25Vc2UiPjxzdG9wIG9mZnNldD0iMCIgc3RvcC1jb2xvcj0iIzMyYmVkZCIvPjxzdG9wIG9mZnNldD0iMC43NzUiIHN0b3AtY29sb3I9IiMzMmQ0ZjUiLz48L2xpbmVhckdyYWRpZW50PjwvZGVmcz48dGl0bGU+TXNQb3J0YWxGeC5iYXNlLmltYWdlcy04PC90aXRsZT48ZyBpZD0iYjFkOWIwZjAtYWRmYS00N2NjLTg4MTktM2ZiYzYxNjIxMmViIj48Zz48cGF0aCBkPSJNLjUsNS43ODhoMTdhMCwwLDAsMCwxLDAsMHY5LjQ3OGEuNTY4LjU2OCwwLDAsMS0uNTY4LjU2OEgxLjA2OEEuNTY4LjU2OCwwLDAsMSwuNSwxNS4yNjZWNS43ODhBMCwwLDAsMCwxLC41LDUuNzg4WiIgZmlsbD0idXJsKCNiN2ZhMTYzNy1kOWUxLTRjMjYtOGYyMC0xY2FlODEyZTdlZWIpIi8+PHBhdGggZD0iTTEuMDcxLDIuMTY2SDE2LjkyOWEuNTY4LjU2OCwwLDAsMSwuNTY4LjU2OFY1Ljc4OGEwLDAsMCwwLDEsMCwwSC41YTAsMCwwLDAsMSwwLDBWMi43MzRBLjU2OC41NjgsMCwwLDEsMS4wNzEsMi4xNjZaIiBmaWxsPSIjMTk4YWIzIi8+PHBhdGggZD0iTTEyLjgxOCw2Ljk0NUg5LjczN2EuMjQzLjI0MywwLDAsMC0uMjQzLjI0M3Y2LjY0NmEuMjQzLjI0MywwLDAsMCwuMjQzLjI0M2g1LjM0YS4yNDMuMjQzLDAsMCwwLC4yNDQtLjI0M3YtNC40YS4yNDQuMjQ0LDAsMCwwLS4yNDQtLjI0NEgxMy4zMDVhLjI0My4yNDMsMCwwLDEtLjI0My0uMjQ0VjcuMTg4QS4yNDMuMjQzLDAsMCwwLDEyLjgxOCw2Ljk0NVoiIGZpbGw9IiNmZmYiLz48cGF0aCBkPSJNMTIuNzA2LDcuMjU2VjguOTI1YS42MTMuNjEzLDAsMCwwLC42MTIuNjEySDE1djQuMjI5SDkuODE1VjcuMjU2aDIuODkxbS4xMTgtLjM2NUg5LjdhLjI0Ny4yNDcsMCwwLDAtLjI0Ny4yNDd2Ni43NDZhLjI0Ny4yNDcsMCwwLDAsLjI0Ny4yNDdoNS40MmEuMjQ3LjI0NywwLDAsMCwuMjQ3LS4yNDdWOS40MTlhLjI0OC4yNDgsMCwwLDAtLjI0Ny0uMjQ3aC0xLjhhLjI0Ny4yNDcsMCwwLDEtLjI0Ny0uMjQ3VjcuMTM4YS4yNDcuMjQ3LDAsMCwwLS4yNDctLjI0N1oiIGZpbGw9IiNjM2YxZmYiLz48cGF0aCBkPSJNMTUuMjcsOS4yMjEsMTIuOTg2LDYuOTQ1VjguOGEuNDE4LjQxOCwwLDAsMCwuNDE2LjQyMVoiIGZpbGw9IiM1MGU2ZmYiLz48Zz48cGF0aCBkPSJNNi4yNTEsNi45NDVIMy4xNjlhLjI0My4yNDMsMCwwLDAtLjI0My4yNDN2Ni42NDZhLjI0My4yNDMsMCwwLDAsLjI0My4yNDNIOC41MWEuMjQzLjI0MywwLDAsMCwuMjQzLS4yNDN2LTQuNGEuMjQzLjI0MywwLDAsMC0uMjQzLS4yNDRINi43MzdhLjI0My4yNDMsMCwwLDEtLjI0My0uMjQ0VjcuMTg4QS4yNDMuMjQzLDAsMCwwLDYuMjUxLDYuOTQ1WiIgZmlsbD0iI2ZmZiIvPjxwYXRoIGQ9Ik02LjEzOCw3LjI1NlY4LjkyNWEuNjEzLjYxMywwLDAsMCwuNjEyLjYxMkg4LjQzMnY0LjIyOUgzLjI0OFY3LjI1NmgyLjg5bS4xMTgtLjM2NUgzLjEzYS4yNDYuMjQ2LDAsMCwwLS4yNDcuMjQ3djYuNzQ2YS4yNDYuMjQ2LDAsMCwwLC4yNDcuMjQ3SDguNTQ5YS4yNDYuMjQ2LDAsMCwwLC4yNDctLjI0N1Y5LjQxOWEuMjQ3LjI0NywwLDAsMC0uMjQ3LS4yNDdINi43NUEuMjQ4LjI0OCwwLDAsMSw2LjUsOC45MjVWNy4xMzhhLjI0Ni4yNDYsMCwwLDAtLjI0Ny0uMjQ3WiIgZmlsbD0iI2MzZjFmZiIvPjxwYXRoIGQ9Ik04LjcsOS4yMjEsNi40MTgsNi45NDVWOC44YS40MTguNDE4LDAsMCwwLC40MTYuNDIxWiIgZmlsbD0iIzUwZTZmZiIvPjwvZz48L2c+PC9nPjwvc3ZnPg==;align=left;labelPosition=right;" parent="1" vertex="1">
                    <mxGeometry x="340" y="140" width="37" height="30.47" as="geometry"/>
                </mxCell>
                <mxCell id="B11YAzN58tQJIFsV2nfx-13" style="edgeStyle=orthogonalEdgeStyle;rounded=0;orthogonalLoop=1;jettySize=auto;html=1;fontFamily=Courier New;endArrow=none;endFill=0;" parent="1" source="B11YAzN58tQJIFsV2nfx-11" target="B11YAzN58tQJIFsV2nfx-12" edge="1">
                    <mxGeometry relative="1" as="geometry">
                        <Array as="points">
                            <mxPoint x="77" y="170"/>
                        </Array>
                    </mxGeometry>
                </mxCell>
                <mxCell id="B11YAzN58tQJIFsV2nfx-11" value="Key Vault&#10;kv-&lt;setup-name&gt;&lt;increment&gt;" style="shape=image;verticalLabelPosition=middle;labelBackgroundColor=#ffffff;verticalAlign=middle;aspect=fixed;imageAspect=0;image=data:image/svg+xml,PHN2ZyB4bWxucz0iaHR0cDovL3d3dy53My5vcmcvMjAwMC9zdmciIHhtbG5zOnhsaW5rPSJodHRwOi8vd3d3LnczLm9yZy8xOTk5L3hsaW5rIiB4bWxuczpzdmc9Imh0dHA6Ly93d3cudzMub3JnLzIwMDAvc3ZnIiBjbGFzcz0iIiBpZD0iRnhTeW1ib2wwLTA0OCIgcm9sZT0icHJlc2VudGF0aW9uIiB2aWV3Qm94PSIwIDAgMjQgMjQiIGZvY3VzYWJsZT0iZmFsc2UiPiYjeGE7PGc+JiN4YTs8dGl0bGUvPiYjeGE7PHBhdGggY2xhc3M9Im1zcG9ydGFsZngtc3ZnLWMxMSIgZmlsbD0iI2ZjZDExNiIgZD0iTSAxMS41IDEgQyA4LjUgMSA2IDMuNSA2IDYuNSBDIDYgOSA3LjYgMTEgOS43IDExLjcgTCA4LjUgMTMgbCAxLjUgMS4zIGwgLTEuNSAxLjQgTCAxMCAxNyBsIC0xLjUgMS41IGwgMyAyLjggbCAyLjUgLTIuNiB2IC03LjMgYyAxLjggLTEgMyAtMi44IDMgLTUgYyAwIC0zIC0yLjUgLTUuNCAtNS41IC01LjQgWiBtIDEgNCBzIC0wLjIgMCAtMC4zIDAuMiBzIC0wLjIgMC4yIC0wLjMgMC4yIEggMTEgbCAtMC4yIC0wLjIgbCAtMC4yIC0wLjMgViA0IGwgMC4yIC0wLjIgbCAwLjMgLTAuMiBoIDAuOSBsIDAuMiAwLjIgbCAwLjIgMC4zIFYgNSBaIi8+JiN4YTs8cGF0aCBjbGFzcz0ibXNwb3J0YWxmeC1zdmctYzEwIiBvcGFjaXR5PSIwLjQiIGZpbGw9IiNmZjhjMDAiIGQ9Ik0gMTIgMTIgdiA3LjIgbCAxIC0xIHYgLTYuNCBhIDUuNSA1LjUgMCAwIDEgLTEgMC4yIFoiLz4mI3hhOzxwYXRoIGNsYXNzPSJtc3BvcnRhbGZ4LXN2Zy1jMDEiIG9wYWNpdHk9IjAuNCIgZmlsbD0iI2ZmZmZmZiIgZD0iTSAxMS41IDEwIEEgMy41IDMuNSAwIDAgMCAxNSA3IEggOCBhIDMuNSAzLjUgMCAwIDAgMy41IDMgWiIvPiYjeGE7PHBhdGggY2xhc3M9Im1zcG9ydGFsZngtc3ZnLWMxNCIgZmlsbD0iIzdmYmEwMCIgZD0iTSAxNy40IDMuOCBjIDAuMyAwLjYgMC40IDEgMC41IDEuNyBhIDkuNSA5LjUgMCAwIDEgMyA3IGMgMCA1LjIgLTQuMyA5LjUgLTkuNSA5LjUgUyAyIDE3LjcgMiAxMi41IGEgOS41IDkuNSAwIDAgMSAzIC03IGwgMC42IC0xLjcgQSAxMC41IDEwLjUgMCAwIDAgMSAxMi41IEMgMSAxOC4zIDUuNyAyMyAxMS41IDIzIFMgMjIgMTguMyAyMiAxMi41IGMgMCAtMy42IC0xLjggLTYuOCAtNC42IC04LjcgWiIvPiYjeGE7PC9nPiYjeGE7PC9zdmc+;fontSize=12;align=left;labelPosition=right;" parent="1" vertex="1">
                    <mxGeometry x="57" y="90" width="40" height="40" as="geometry"/>
                </mxCell>
                <mxCell id="B11YAzN58tQJIFsV2nfx-14" value="Grants access" style="rounded=0;orthogonalLoop=1;jettySize=auto;html=1;fontFamily=Helvetica;endArrow=classic;endFill=1;fillColor=#f8cecc;strokeColor=#FF0000;" parent="1" source="B11YAzN58tQJIFsV2nfx-12" target="B11YAzN58tQJIFsV2nfx-6" edge="1">
                    <mxGeometry relative="1" as="geometry"/>
                </mxCell>
                <mxCell id="B11YAzN58tQJIFsV2nfx-12" value="Storage Account Key" style="aspect=fixed;html=1;points=[];align=left;image;fontSize=12;image=img/lib/mscae/Key.svg;dashed=1;strokeColor=#3999c6;fillColor=none;labelPosition=right;verticalLabelPosition=middle;verticalAlign=middle;" parent="1" vertex="1">
                    <mxGeometry x="87" y="160" width="18.6" height="30" as="geometry"/>
                </mxCell>
                <mxCell id="B11YAzN58tQJIFsV2nfx-15" value="Terraform setup" style="text;html=1;align=left;verticalAlign=middle;resizable=0;points=[];autosize=1;fontFamily=Helvetica;fontSize=14;fontStyle=4;" parent="1" vertex="1">
                    <mxGeometry x="190" y="54" width="110" height="20" as="geometry"/>
                </mxCell>
                <mxCell id="6TbM0mQEEboQS2Itlm_B-1" value="Virtual Network&#10;vnet-aks" style="shape=image;verticalLabelPosition=middle;labelBackgroundColor=#ffffff;verticalAlign=middle;aspect=fixed;imageAspect=0;image=data:image/svg+xml,PHN2ZyB4bWxucz0iaHR0cDovL3d3dy53My5vcmcvMjAwMC9zdmciIHhtbG5zOnhsaW5rPSJodHRwOi8vd3d3LnczLm9yZy8xOTk5L3hsaW5rIiB2ZXJzaW9uPSIxLjEiIGlkPSJMYXllcl8xIiB4PSIwcHgiIHk9IjBweCIgaGVpZ2h0PSI1MHB4IiB3aWR0aD0iNTBweCIgdmlld0JveD0iMCAwIDUwIDUwIiBlbmFibGUtYmFja2dyb3VuZD0ibmV3IDAgMCA1MCA1MCIgeG1sOnNwYWNlPSJwcmVzZXJ2ZSI+JiN4YTs8cGF0aCBmaWxsPSIjMzk5OUM2IiBkPSJNNDkuNywyNS43YzAuNS0wLjUsMC40LTEuMywwLTEuOGwtMi40LTIuNEwzNi41LDExYy0wLjUtMC41LTEuMi0wLjUtMS43LDBsMCwwYy0wLjUsMC41LTAuNiwxLjMsMCwxLjggIGwxMS4zLDExLjFjMC41LDAuNSwwLjUsMS4zLDAsMS44TDM0LjYsMzcuMmMtMC41LDAuNS0wLjUsMS4zLDAsMS44bDAsMGMwLjUsMC41LDEuMywwLjQsMS43LDBsMTAuNy0xMC42YzAsMCwwLDAsMC4xLTAuMUw0OS43LDI1LjcgIHoiLz4mI3hhOzxwYXRoIGZpbGw9IiMzOTk5QzYiIGQ9Ik0wLjMsMjUuN2MtMC41LTAuNS0wLjQtMS4zLDAtMS44bDIuNC0yLjRMMTMuNSwxMWMwLjUtMC41LDEuMi0wLjUsMS43LDBsMCwwYzAuNSwwLjUsMC42LDEuMywwLDEuOCAgTDQuMSwyMy45Yy0wLjUsMC41LTAuNSwxLjMsMCwxLjhsMTEuMywxMS41YzAuNSwwLjUsMC41LDEuMywwLDEuOGwwLDBjLTAuNSwwLjUtMS4zLDAuNC0xLjcsMEwyLjgsMjguNWMwLDAsMCwwLTAuMS0wLjFMMC4zLDI1Ljd6Ii8+JiN4YTs8cGF0aCBmaWxsPSIjN0ZCQTAwIiBkPSJNMTguMiwyNC44YzAsMS45LTEuNiwzLjMtMy4zLDMuM3MtMy41LTEuNi0zLjUtMy4zczEuNC0zLjMsMy41LTMuM0MxNi45LDIxLjUsMTguMiwyMy4xLDE4LjIsMjQuOHoiLz4mI3hhOzxwYXRoIGZpbGw9IiM3RkJBMDAiIGQ9Ik0yOC4zLDI0LjhjMCwxLjktMS42LDMuMy0zLjMsMy4zcy0zLjUtMS42LTMuNS0zLjNzMS42LTMuMywzLjUtMy4zUzI4LjMsMjMuMSwyOC4zLDI0Ljh6Ii8+JiN4YTs8Y2lyY2xlIGZpbGw9IiM3RkJBMDAiIGN4PSIzNS4yIiBjeT0iMjQuOCIgcj0iMy4zIi8+JiN4YTs8L3N2Zz4=;labelPosition=right;align=left;" parent="1" vertex="1">
                    <mxGeometry x="65.6" y="301" width="40" height="40" as="geometry"/>
                </mxCell>
                <mxCell id="6TbM0mQEEboQS2Itlm_B-3" value="Public IP&#10;pip-aks-egress" style="shape=image;verticalLabelPosition=middle;labelBackgroundColor=#ffffff;verticalAlign=middle;aspect=fixed;imageAspect=0;image=data:image/svg+xml,PHN2ZyB4bWxucz0iaHR0cDovL3d3dy53My5vcmcvMjAwMC9zdmciIHhtbG5zOnhsaW5rPSJodHRwOi8vd3d3LnczLm9yZy8xOTk5L3hsaW5rIiB2ZXJzaW9uPSIxLjEiIGlkPSJMYXllcl8xIiB4PSIwcHgiIHk9IjBweCIgd2lkdGg9IjUwcHgiIGhlaWdodD0iNTBweCIgdmlld0JveD0iMC41IDAuNSA1MCA1MCIgZW5hYmxlLWJhY2tncm91bmQ9Im5ldyAwLjUgMC41IDUwIDUwIiB4bWw6c3BhY2U9InByZXNlcnZlIj4mI3hhOzxwYXRoIGZpbGw9IiM1OUI0RDkiIGQ9Ik0wLjUsNDUuMTI3YzAsMS4xMDgsMC44OTgsMi4wMDcsMi4wMDcsMi4wMDdoNDUuOTg2YzEuMTA5LDAsMi4wMDctMC44OTksMi4wMDctMi4wMDdWMTMuNzk4aC01MFY0NS4xMjd6Ii8+JiN4YTs8cGF0aCBmaWxsPSIjQTBBMUEyIiBkPSJNNDguNDkzLDQuNUgyLjUwN0MxLjM5OCw0LjUsMC41LDUuMzk4LDAuNSw2LjUwN3YxMC42MjdoNTBWNi41MDdDNTAuNSw1LjM5OCw0OS42MDEsNC41LDQ4LjQ5Myw0LjUiLz4mI3hhOzxwYXRoIG9wYWNpdHk9IjAuMiIgZmlsbD0iI0ZGRkZGRiIgZD0iTTIuNTE0LDQuNWMtMS4xMDgsMC0yLjAwNywwLjg5OC0yLjAwNywyLjAwN3Y3LjI5MXYzLjMzNnYyNy45OTMgIGMwLDEuMTA4LDAuODk5LDIuMDA3LDIuMDA3LDIuMDA3aDIuMTg4TDQ0LjEyLDQuNUgyLjUxNHoiLz4mI3hhOzxyZWN0IHg9IjEzLjM1NyIgeT0iOS4yNzkiIGZpbGw9IiNGRkZGRkYiIHdpZHRoPSIzMy42NzEiIGhlaWdodD0iMy45NDIiLz4mI3hhOzxwYXRoIGZpbGw9IiM1OUI0RDkiIGQ9Ik0xMS44MSwxMS4xODNjMCwyLjY5My0yLjE4NCw0Ljg3OC00Ljg3OCw0Ljg3OGMtMi42OTQsMC00Ljg3OC0yLjE4NS00Ljg3OC00Ljg3OCAgYzAtMi42OTQsMi4xODQtNC44NzksNC44NzgtNC44NzlDOS42MjUsNi4zMDQsMTEuODEsOC40ODksMTEuODEsMTEuMTgzIi8+JiN4YTs8cG9seWdvbiBmaWxsPSIjRkZGRkZGIiBwb2ludHM9IjYuNDE2LDExLjczMiA4LjYyOSwxNC4wNjggNy40MjgsMTQuMDY4IDQuNDY5LDExLjI1IDcuNDE3LDguNDMyIDguNjE1LDguNDMyIDYuNDE2LDEwLjc1NCAgIDExLjgwOSwxMC43NTQgMTEuODA5LDExLjczMiAiLz4mI3hhOzxwYXRoIGZpbGw9IiNGRkZGRkYiIGQ9Ik0xNy45MjYsMzYuNTc2YzAsMC41Ny0wLjIwMywxLjAzNy0wLjYwOSwxLjRzLTAuOTQxLDAuNTQ1LTEuNjA1LDAuNTQ1Yy0wLjU5NCwwLTEuMDk4LTAuMTg2LTEuNTEyLTAuNTU3ICBzLTAuNjIxLTAuODM0LTAuNjIxLTEuMzg5YzAtMC41NjMsMC4yMDctMS4wMjMsMC42MjEtMS4zODNzMC45MzgtMC41MzksMS41Ny0wLjUzOWMwLjYwOSwwLDEuMTIxLDAuMTg0LDEuNTM1LDAuNTUxICBTMTcuOTI2LDM2LjAyOSwxNy45MjYsMzYuNTc2eiIvPiYjeGE7PHBhdGggZmlsbD0iI0ZGRkZGRiIgZD0iTTI2LjgzLDM2LjU3NmMwLDAuNTctMC4yMDMsMS4wMzctMC42MDksMS40cy0wLjk0MSwwLjU0NS0xLjYwNSwwLjU0NWMtMC41OTQsMC0xLjA5OC0wLjE4Ni0xLjUxMi0wLjU1NyAgcy0wLjYyMS0wLjgzNC0wLjYyMS0xLjM4OWMwLTAuNTYzLDAuMjA3LTEuMDIzLDAuNjIxLTEuMzgzczAuOTM4LTAuNTM5LDEuNTctMC41MzljMC42MDksMCwxLjEyMSwwLjE4NCwxLjUzNSwwLjU1MSAgUzI2LjgzLDM2LjAyOSwyNi44MywzNi41NzZ6Ii8+JiN4YTs8cGF0aCBmaWxsPSIjRkZGRkZGIiBkPSJNMzUuNzMzLDM2LjU3NmMwLDAuNTctMC4yMDMsMS4wMzctMC42MDksMS40cy0wLjk0MSwwLjU0NS0xLjYwNSwwLjU0NWMtMC41OTQsMC0xLjA5OC0wLjE4Ni0xLjUxMi0wLjU1NyAgcy0wLjYyMS0wLjgzNC0wLjYyMS0xLjM4OWMwLTAuNTYzLDAuMjA3LTEuMDIzLDAuNjIxLTEuMzgzczAuOTM4LTAuNTM5LDEuNTctMC41MzljMC42MDksMCwxLjEyMSwwLjE4NCwxLjUzNSwwLjU1MSAgUzM1LjczMywzNi4wMjksMzUuNzMzLDM2LjU3NnoiLz4mI3hhOzwvc3ZnPg==;align=left;labelPosition=right;" parent="1" vertex="1">
                    <mxGeometry x="450" y="490" width="40" height="40" as="geometry"/>
                </mxCell>
                <mxCell id="6TbM0mQEEboQS2Itlm_B-4" value="Public IP&#10;pip-aks-ingress" style="shape=image;verticalLabelPosition=middle;labelBackgroundColor=#ffffff;verticalAlign=middle;aspect=fixed;imageAspect=0;image=data:image/svg+xml,PHN2ZyB4bWxucz0iaHR0cDovL3d3dy53My5vcmcvMjAwMC9zdmciIHhtbG5zOnhsaW5rPSJodHRwOi8vd3d3LnczLm9yZy8xOTk5L3hsaW5rIiB2ZXJzaW9uPSIxLjEiIGlkPSJMYXllcl8xIiB4PSIwcHgiIHk9IjBweCIgd2lkdGg9IjUwcHgiIGhlaWdodD0iNTBweCIgdmlld0JveD0iMC41IDAuNSA1MCA1MCIgZW5hYmxlLWJhY2tncm91bmQ9Im5ldyAwLjUgMC41IDUwIDUwIiB4bWw6c3BhY2U9InByZXNlcnZlIj4mI3hhOzxwYXRoIGZpbGw9IiM1OUI0RDkiIGQ9Ik0wLjUsNDUuMTI3YzAsMS4xMDgsMC44OTgsMi4wMDcsMi4wMDcsMi4wMDdoNDUuOTg2YzEuMTA5LDAsMi4wMDctMC44OTksMi4wMDctMi4wMDdWMTMuNzk4aC01MFY0NS4xMjd6Ii8+JiN4YTs8cGF0aCBmaWxsPSIjQTBBMUEyIiBkPSJNNDguNDkzLDQuNUgyLjUwN0MxLjM5OCw0LjUsMC41LDUuMzk4LDAuNSw2LjUwN3YxMC42MjdoNTBWNi41MDdDNTAuNSw1LjM5OCw0OS42MDEsNC41LDQ4LjQ5Myw0LjUiLz4mI3hhOzxwYXRoIG9wYWNpdHk9IjAuMiIgZmlsbD0iI0ZGRkZGRiIgZD0iTTIuNTE0LDQuNWMtMS4xMDgsMC0yLjAwNywwLjg5OC0yLjAwNywyLjAwN3Y3LjI5MXYzLjMzNnYyNy45OTMgIGMwLDEuMTA4LDAuODk5LDIuMDA3LDIuMDA3LDIuMDA3aDIuMTg4TDQ0LjEyLDQuNUgyLjUxNHoiLz4mI3hhOzxyZWN0IHg9IjEzLjM1NyIgeT0iOS4yNzkiIGZpbGw9IiNGRkZGRkYiIHdpZHRoPSIzMy42NzEiIGhlaWdodD0iMy45NDIiLz4mI3hhOzxwYXRoIGZpbGw9IiM1OUI0RDkiIGQ9Ik0xMS44MSwxMS4xODNjMCwyLjY5My0yLjE4NCw0Ljg3OC00Ljg3OCw0Ljg3OGMtMi42OTQsMC00Ljg3OC0yLjE4NS00Ljg3OC00Ljg3OCAgYzAtMi42OTQsMi4xODQtNC44NzksNC44NzgtNC44NzlDOS42MjUsNi4zMDQsMTEuODEsOC40ODksMTEuODEsMTEuMTgzIi8+JiN4YTs8cG9seWdvbiBmaWxsPSIjRkZGRkZGIiBwb2ludHM9IjYuNDE2LDExLjczMiA4LjYyOSwxNC4wNjggNy40MjgsMTQuMDY4IDQuNDY5LDExLjI1IDcuNDE3LDguNDMyIDguNjE1LDguNDMyIDYuNDE2LDEwLjc1NCAgIDExLjgwOSwxMC43NTQgMTEuODA5LDExLjczMiAiLz4mI3hhOzxwYXRoIGZpbGw9IiNGRkZGRkYiIGQ9Ik0xNy45MjYsMzYuNTc2YzAsMC41Ny0wLjIwMywxLjAzNy0wLjYwOSwxLjRzLTAuOTQxLDAuNTQ1LTEuNjA1LDAuNTQ1Yy0wLjU5NCwwLTEuMDk4LTAuMTg2LTEuNTEyLTAuNTU3ICBzLTAuNjIxLTAuODM0LTAuNjIxLTEuMzg5YzAtMC41NjMsMC4yMDctMS4wMjMsMC42MjEtMS4zODNzMC45MzgtMC41MzksMS41Ny0wLjUzOWMwLjYwOSwwLDEuMTIxLDAuMTg0LDEuNTM1LDAuNTUxICBTMTcuOTI2LDM2LjAyOSwxNy45MjYsMzYuNTc2eiIvPiYjeGE7PHBhdGggZmlsbD0iI0ZGRkZGRiIgZD0iTTI2LjgzLDM2LjU3NmMwLDAuNTctMC4yMDMsMS4wMzctMC42MDksMS40cy0wLjk0MSwwLjU0NS0xLjYwNSwwLjU0NWMtMC41OTQsMC0xLjA5OC0wLjE4Ni0xLjUxMi0wLjU1NyAgcy0wLjYyMS0wLjgzNC0wLjYyMS0xLjM4OWMwLTAuNTYzLDAuMjA3LTEuMDIzLDAuNjIxLTEuMzgzczAuOTM4LTAuNTM5LDEuNTctMC41MzljMC42MDksMCwxLjEyMSwwLjE4NCwxLjUzNSwwLjU1MSAgUzI2LjgzLDM2LjAyOSwyNi44MywzNi41NzZ6Ii8+JiN4YTs8cGF0aCBmaWxsPSIjRkZGRkZGIiBkPSJNMzUuNzMzLDM2LjU3NmMwLDAuNTctMC4yMDMsMS4wMzctMC42MDksMS40cy0wLjk0MSwwLjU0NS0xLjYwNSwwLjU0NWMtMC41OTQsMC0xLjA5OC0wLjE4Ni0xLjUxMi0wLjU1NyAgcy0wLjYyMS0wLjgzNC0wLjYyMS0xLjM4OWMwLTAuNTYzLDAuMjA3LTEuMDIzLDAuNjIxLTEuMzgzczAuOTM4LTAuNTM5LDEuNTctMC41MzljMC42MDksMCwxLjEyMSwwLjE4NCwxLjUzNSwwLjU1MSAgUzM1LjczMywzNi4wMjksMzUuNzMzLDM2LjU3NnoiLz4mI3hhOzwvc3ZnPg==;align=left;labelPosition=right;" parent="1" vertex="1">
                    <mxGeometry x="377" y="550" width="40" height="40" as="geometry"/>
                </mxCell>
                <mxCell id="6TbM0mQEEboQS2Itlm_B-5" value="MariaDB&#10;db-&lt;environment&gt;" style="shape=image;verticalLabelPosition=middle;labelBackgroundColor=#ffffff;verticalAlign=middle;aspect=fixed;imageAspect=0;image=data:image/svg+xml,PHN2ZyB4bWxucz0iaHR0cDovL3d3dy53My5vcmcvMjAwMC9zdmciIHhtbG5zOnhsaW5rPSJodHRwOi8vd3d3LnczLm9yZy8xOTk5L3hsaW5rIiB4bWxuczpzdmc9Imh0dHA6Ly93d3cudzMub3JnLzIwMDAvc3ZnIiBjbGFzcz0iIiBpZD0iRnhTeW1ib2wwLTA4OCIgcm9sZT0icHJlc2VudGF0aW9uIiB2aWV3Qm94PSIwIDAgODQuMSAxMTEuNCIgZm9jdXNhYmxlPSJmYWxzZSI+JiN4YTs8Zz4mI3hhOzx0aXRsZS8+JiN4YTs8cGF0aCBmaWxsPSIjMWIzNjYyIiBkPSJNIDAgMTUuMiB2IDgwLjkgYyAwIDguNSAxOC44IDE1LjIgNDEuOSAxNS4yIFYgMTUuMiBaIi8+JiN4YTs8cGF0aCBmaWxsPSIjMmY0Yzc3IiBkPSJNIDQxLjUgMTExLjQgaCAwLjcgYyAyMy4zIDAgNDEuOSAtNi43IDQxLjkgLTE1LjIgdiAtODEgSCA0MS41IFoiLz4mI3hhOzxwYXRoIGNsYXNzPSJtc3BvcnRhbGZ4LXN2Zy1jMDEiIGZpbGw9IiNmZmZmZmYiIGQ9Ik0gODQuMSAxNS4yIGMgMCA4LjMgLTE4LjggMTUuMiAtNDEuOSAxNS4yIFMgMCAyMy41IDAgMTUuMiBTIDE4LjggMCA0MS45IDAgcyA0Mi4yIDcgNDIuMiAxNS4yIi8+JiN4YTs8cGF0aCBmaWxsPSIjN2ZiOTAwIiBkPSJNIDc1LjYgMTQuMyBjIDAgNS42IC0xNSAxMC4xIC0zMy40IDEwLjEgUyA4LjUgMjAgOC41IDE0LjMgcyAxNSAtMTAuMSAzMy40IC0xMC4xIHMgMzMuNyA0LjUgMzMuNyAxMC4xIi8+JiN4YTs8cGF0aCBmaWxsPSIjYjdkMzMyIiBkPSJNIDY4LjQgMjAuNCBjIDQuNSAtMS44IDcgLTMuOCA3IC02LjEgYyAwIC01LjYgLTE1IC0xMC4xIC0zMy40IC0xMC4xIFMgOC41IDguNyA4LjUgMTQuMyBjIDAgMi4yIDIuNyA0LjUgNyA2LjEgYyA2LjEgLTIuNSAxNS43IC0zLjggMjYuNSAtMy44IHMgMjAuMyAxLjYgMjYuNCAzLjgiLz4mI3hhOzxwYXRoIGNsYXNzPSJtc3BvcnRhbGZ4LXN2Zy1jMDEiIGZpbGw9IiNmZmZmZmYiIGQ9Ik0gNi41IDgyLjcxIHMgMy41MSAtMS41OCA0LjU3IC0xLjU4IGMgMCAwIDMuODYgLTAuNTMgNS42MiAtMC41MyBzIDMuMzEgLTEuNCA0LjU3IC0zLjM0IHMgNi4zMiAtNy43MyAxMi4xMiAtOSBzIDE0Ljc2IC0yLjY0IDE5LjY4IC05LjE0IHMgNy41NSAtMTQuMjMgMTUuMTEgLTE0LjU4IHMgNS4wOSAtMS45MyA3LjIgLTEuOTMgcyAwLjg4IDQgMC44OCA0IHMgLTAuNyAwLjUzIC0wLjcgMC43IHMgLTAuNTUgMi4zNyAtNC40IDQuNjkgcyAtNCA3LjczIC00LjM5IDEwIHMgLTMuODYgMTMuMzUgLTcuMzggMTYuMzQgbCAtMC44OCAwLjM1IHMgLTAuMzUgMC44OCAtMC43IDEuMDUgcyAtMS4yMyAtMC43IC0xLjQxIC0xLjA1IHMgLTEuNzYgMyAtMi4yOCAzLjY5IGEgMTMuNyAxMy43IDAgMCAxIC0xMC43MiA2LjUgcyA1LjggLTkuNjYgNS4yNyAtMTMuMTggYSAyMS42IDIxLjYgMCAwIDAgLTEuNTggMy44NiBjIDAgMC43IC0xLjIzIDIuMTEgLTMuMTYgMi4yOCBzIC0xNC4yMyAtMi44MSAtMTkuMzIgMCBzIC03LjIgNS4yNyAtMTAgNS40NSBzIC01LjYyIDAuMTggLTYuNjggLTAuMzUgYyAwIDAgMi4yOCAtMi40NiAyLjQ2IC0yLjgxIGMgLTAuMDIgLTAuMDEgLTMuMzggMC42OSAtMy44OCAtMS40MiBaIi8+JiN4YTs8cGF0aCBmaWxsPSIjMWIzNjYyIiBkPSJNIDc1LjcyIDQ3LjIyIGwgMC41MyAtMC41MyBzIC0yLjQ2IC0wLjcgLTMuMTYgLTIuNDYgYSAwLjg1IDAuODUgMCAwIDAgMCAwLjcgYSAxMC43MiAxMC43MiAwIDAgMCAyLjYzIDIuMjkgWiBNIDY0LjgyIDQ5IHMgMS4wNSAtMi40NiAzLjM0IC0xLjkzIGEgMS44MiAxLjgyIDAgMCAxIC0xLjQxIDIuNDYgYSAyLjU0IDIuNTQgMCAwIDEgLTEuOTMgLTAuNTMgWiIvPiYjeGE7PHBhdGggY2xhc3M9Im1zcG9ydGFsZngtc3ZnLWMwMSIgZmlsbD0iI2ZmZmZmZiIgc3Ryb2tlPSIjMWIzNjYyIiBzdHJva2UtbWl0ZXJsaW1pdD0iMTAiIHN0cm9rZS13aWR0aD0iMC41IiBkPSJNIDcyLjczIDQ2IHMgLTEuOTMgMi42NCAtMi4xMSAzLjY5IG0gMi40NiAtMy4xNyBhIDIzLjY2IDIzLjY2IDAgMCAwIC0xLjQxIDMuMzQgbSAxLjU5IC0zLjM0IGEgMTAuNzYgMTAuNzYgMCAwIDAgLTAuNTMgMy4zNCIvPiYjeGE7PHBhdGggY2xhc3M9Im1zcG9ydGFsZngtc3ZnLWMwMSIgZmlsbD0iI2ZmZmZmZiIgZD0iTSA2Mi4xOSA3Ni4yMSBzIC0zLjE2IDMgLTMuMzQgNCBzIDMuNTEgMi42NCA1LjggMi4xMSBjIDAgMC4wNCAtMi40NiAtNS40MSAtMi40NiAtNi4xMSBaIi8+JiN4YTs8L2c+JiN4YTs8L3N2Zz4=;fontSize=12;align=left;labelPosition=right;" parent="1" vertex="1">
                    <mxGeometry x="84.87999999999998" y="651" width="30.27" height="40" as="geometry"/>
                </mxCell>
                <mxCell id="6TbM0mQEEboQS2Itlm_B-31" style="edgeStyle=orthogonalEdgeStyle;rounded=0;orthogonalLoop=1;jettySize=auto;html=1;strokeColor=#000000;" parent="1" source="6TbM0mQEEboQS2Itlm_B-6" target="6TbM0mQEEboQS2Itlm_B-4" edge="1">
                    <mxGeometry relative="1" as="geometry">
                        <Array as="points">
                            <mxPoint x="580" y="230"/>
                            <mxPoint x="397" y="230"/>
                        </Array>
                    </mxGeometry>
                </mxCell>
                <mxCell id="6TbM0mQEEboQS2Itlm_B-6" value="DNS Record&lt;br&gt;&lt;div&gt;*.&amp;lt;environment&amp;gt;.dpl.reload.dk&lt;/div&gt;" style="aspect=fixed;html=1;points=[];align=left;image;fontSize=12;image=img/lib/azure2/networking/DNS_Zones.svg;labelPosition=right;verticalLabelPosition=middle;verticalAlign=middle;" parent="1" vertex="1">
                    <mxGeometry x="560" y="90" width="40" height="40" as="geometry"/>
                </mxCell>
                <mxCell id="6TbM0mQEEboQS2Itlm_B-29" value="Creates" style="edgeStyle=orthogonalEdgeStyle;rounded=0;orthogonalLoop=1;jettySize=auto;html=1;" parent="1" source="6TbM0mQEEboQS2Itlm_B-7" target="6TbM0mQEEboQS2Itlm_B-21" edge="1">
                    <mxGeometry x="0.4655" relative="1" as="geometry">
                        <mxPoint x="630" y="480" as="targetPoint"/>
                        <mxPoint as="offset"/>
                    </mxGeometry>
                </mxCell>
                <mxCell id="6TbM0mQEEboQS2Itlm_B-46" style="edgeStyle=orthogonalEdgeStyle;rounded=0;orthogonalLoop=1;jettySize=auto;html=1;endArrow=classic;endFill=1;strokeColor=#FF0000;" parent="1" source="6TbM0mQEEboQS2Itlm_B-7" target="6TbM0mQEEboQS2Itlm_B-9" edge="1">
                    <mxGeometry relative="1" as="geometry"/>
                </mxCell>
                <mxCell id="6TbM0mQEEboQS2Itlm_B-47" value="Accesses" style="edgeStyle=orthogonalEdgeStyle;rounded=0;orthogonalLoop=1;jettySize=auto;html=1;entryX=0.5;entryY=0;entryDx=0;entryDy=0;endArrow=classic;endFill=1;strokeColor=#FF0000;" parent="1" source="6TbM0mQEEboQS2Itlm_B-7" target="6TbM0mQEEboQS2Itlm_B-5" edge="1">
                    <mxGeometry relative="1" as="geometry"/>
                </mxCell>
                <mxCell id="6TbM0mQEEboQS2Itlm_B-7" value="Kubernetes Cluster&#10;aks-&lt;environment&gt;-01" style="shape=image;verticalLabelPosition=middle;labelBackgroundColor=#ffffff;verticalAlign=middle;aspect=fixed;imageAspect=0;image=data:image/svg+xml,PHN2ZyB4bWxucz0iaHR0cDovL3d3dy53My5vcmcvMjAwMC9zdmciIHhtbG5zOnhsaW5rPSJodHRwOi8vd3d3LnczLm9yZy8xOTk5L3hsaW5rIiB4bWxuczpzdmc9Imh0dHA6Ly93d3cudzMub3JnLzIwMDAvc3ZnIiBjbGFzcz0iZnhzLXBvcnRhbC1zdmciIGlkPSJGeFN5bWJvbDAtMDVlIiByb2xlPSJwcmVzZW50YXRpb24iIHZpZXdCb3g9IjAgMCA1MCA1MCIgZm9jdXNhYmxlPSJmYWxzZSI+JiN4YTs8Zz4mI3hhOzx0aXRsZS8+JiN4YTs8cGF0aCBjbGFzcz0ibXNwb3J0YWxmeC1zdmctYzE3IiBmaWxsPSIjODA0OTk4IiBkPSJNIDIyLjg5MSAxNS45NDkgbCAtNy42NDcgMi45MjEgViA2LjUzNyBsIDcuNjQ3IDIuNzA4IFoiLz4mI3hhOzxwYXRoIGNsYXNzPSJtc3BvcnRhbGZ4LXN2Zy1jMjAiIGZpbGw9IiM2ODIxN2EiIGQ9Ik0gOC4yODkgOC41NjUgdiA4LjEgbCA1LjcyOCAyLjE3OSBWIDYuNTM3IEwgOC4yODkgOC41NjUgWiBtIDAuNjI4IDcuNTEzIGwgLTAuMzEyIC0wLjA5NyBWIDkuMjc0IGwgMC4zMTIgLTAuMDg4IGwgMC4zMjggLTAuMDkyIGwgMC4zNDkgLTAuMDk4IHYgNy4yOTIgbCAtMC4zNDkgLTAuMTA4IGwgLTAuMzI4IC0wLjEwMiBaIG0gMS40MzYgMC40NDUgbCAtMC4zOTIgLTAuMTIxIHYgLTcuNTEgbCAwLjM5MiAtMC4xMSBsIDAuNDE1IC0wLjExNyBsIDAuNDQ0IC0wLjEyNSB2IDguMjQ5IGwgLTAuNDQ0IC0wLjEzOCBsIC0wLjQxNSAtMC4xMjggWiBtIDEuODQgMC41NjkgbCAtMC41MDggLTAuMTU3IFYgOC40MDcgbCAwLjUwOCAtMC4xNDMgbCAwLjU0MiAtMC4xNTMgbCAwLjU4NiAtMC4xNjUgdiA5LjQ5NiBsIC0wLjU4NiAtMC4xODEgbCAtMC41NDIgLTAuMTY5IFoiLz4mI3hhOzxwYXRoIGNsYXNzPSJtc3BvcnRhbGZ4LXN2Zy1jMTciIGZpbGw9IiM4MDQ5OTgiIGQ9Ik0gNDAuNzkxIDE1Ljk0OSBsIC03LjY0OCAyLjkyMSBWIDYuNTM3IGwgNy42NDggMi43MDggWiIvPiYjeGE7PHBhdGggY2xhc3M9Im1zcG9ydGFsZngtc3ZnLWMyMCIgZmlsbD0iIzY4MjE3YSIgZD0iTSAyNi4xODkgOC41NjUgdiA4LjEgbCA1LjcyOCAyLjE3OSBWIDYuNTM3IGwgLTUuNzI4IDIuMDI4IFogbSAwLjYyNyA3LjUxMyBsIC0wLjMxMiAtMC4wOTcgViA5LjI3NCBsIDAuMzEyIC0wLjA4OCBsIDAuMzI4IC0wLjA5MiBsIDAuMzQ5IC0wLjA5OCB2IDcuMjkyIGwgLTAuMzQ5IC0wLjEwOCBsIC0wLjMyOCAtMC4xMDIgWiBtIDEuNDM2IDAuNDQ1IGwgLTAuMzkyIC0wLjEyMSB2IC03LjUxIGwgMC4zOTIgLTAuMTEgbCAwLjQxNSAtMC4xMTcgbCAwLjQ0NCAtMC4xMjUgdiA4LjI0OSBsIC0wLjQ0NCAtMC4xMzggbCAtMC40MTUgLTAuMTI4IFogbSAxLjg0IDAuNTY5IGwgLTAuNTA4IC0wLjE1NyBWIDguNDA3IGwgMC41MDggLTAuMTQzIGwgMC41NDIgLTAuMTUzIGwgMC41ODYgLTAuMTY1IHYgOS40OTYgbCAtMC41ODYgLTAuMTgxIGwgLTAuNTQyIC0wLjE2OSBaIi8+JiN4YTs8cGF0aCBjbGFzcz0ibXNwb3J0YWxmeC1zdmctYzE3IiBmaWxsPSIjODA0OTk4IiBkPSJNIDIyLjg5MSA0MC41NDMgbCAtNy42NDcgMi45MiBWIDMxLjEzIGwgNy42NDcgMi43MDkgWiIvPiYjeGE7PHBhdGggY2xhc3M9Im1zcG9ydGFsZngtc3ZnLWMyMCIgZmlsbD0iIzY4MjE3YSIgZD0iTSA4LjI4OSAzMy4xNTkgdiA4LjEgbCA1LjcyOCAyLjE3OSBWIDMxLjEzIGwgLTUuNzI4IDIuMDI5IFogbSAwLjYyOCA3LjUxMyBsIC0wLjMxMiAtMC4wOTcgdiAtNi43MDcgbCAwLjMxMiAtMC4wODggbCAwLjMyOCAtMC4wOTIgbCAwLjM0OSAtMC4wOTggdiA3LjI5MiBsIC0wLjM0OSAtMC4xMDggbCAtMC4zMjggLTAuMTAyIFogbSAxLjQzNiAwLjQ0NCBsIC0wLjM5MiAtMC4xMjEgdiAtNy41MDkgbCAwLjM5MiAtMC4xMTEgbCAwLjQxNSAtMC4xMTcgbCAwLjQ0NCAtMC4xMjUgdiA4LjI0OSBsIC0wLjQ0NCAtMC4xMzggbCAtMC40MTUgLTAuMTI4IFogbSAxLjg0IDAuNTcgbCAtMC41MDggLTAuMTU3IFYgMzMgbCAwLjUwOCAtMC4xNDMgbCAwLjU0MiAtMC4xNTMgbCAwLjU4NiAtMC4xNjUgdiA5LjQ5NiBsIC0wLjU4NiAtMC4xODEgbCAtMC41NDIgLTAuMTY4IFoiLz4mI3hhOzxwYXRoIGNsYXNzPSJtc3BvcnRhbGZ4LXN2Zy1jMTciIGZpbGw9IiM4MDQ5OTgiIGQ9Ik0gNDAuNzkxIDQwLjU0MyBsIC03LjY0OCAyLjkyIFYgMzEuMTMgbCA3LjY0OCAyLjcwOSBaIi8+JiN4YTs8cGF0aCBjbGFzcz0ibXNwb3J0YWxmeC1zdmctYzIwIiBmaWxsPSIjNjgyMTdhIiBkPSJNIDI2LjE4OSAzMy4xNTkgdiA4LjEgbCA1LjcyOCAyLjE3OSBWIDMxLjEzIGwgLTUuNzI4IDIuMDI5IFogbSAwLjYyNyA3LjUxMyBsIC0wLjMxMiAtMC4wOTcgdiAtNi43MDcgbCAwLjMxMiAtMC4wODggbCAwLjMyOCAtMC4wOTIgbCAwLjM0OSAtMC4wOTggdiA3LjI5MiBsIC0wLjM0OSAtMC4xMDggbCAtMC4zMjggLTAuMTAyIFogbSAxLjQzNiAwLjQ0NCBsIC0wLjM5MiAtMC4xMjEgdiAtNy41MDkgbCAwLjM5MiAtMC4xMTEgbCAwLjQxNSAtMC4xMTcgbCAwLjQ0NCAtMC4xMjUgdiA4LjI0OSBsIC0wLjQ0NCAtMC4xMzggbCAtMC40MTUgLTAuMTI4IFogbSAxLjg0IDAuNTcgbCAtMC41MDggLTAuMTU3IFYgMzMgbCAwLjUwOCAtMC4xNDMgbCAwLjU0MiAtMC4xNTMgbCAwLjU4NiAtMC4xNjUgdiA5LjQ5NiBsIC0wLjU4NiAtMC4xODEgbCAtMC41NDIgLTAuMTY4IFoiLz4mI3hhOzxwYXRoIGNsYXNzPSJtc3BvcnRhbGZ4LXN2Zy1jMTciIGZpbGw9IiM4MDQ5OTgiIGQ9Ik0gMzIuNDE3IDI4LjIxIGwgLTcuNjQ4IDIuOTIgViAxOC43OTggbCA3LjY0OCAyLjcwOCBaIi8+JiN4YTs8cGF0aCBjbGFzcz0ibXNwb3J0YWxmeC1zdmctYzIwIiBmaWxsPSIjNjgyMTdhIiBkPSJNIDE3LjgxNSAyMC44MjYgdiA4LjEgbCA1LjcyOCAyLjE3OSBWIDE4Ljc5OCBsIC01LjcyOCAyLjAyOCBaIG0gMC42MjcgNy41MTMgbCAtMC4zMTIgLTAuMDk3IHYgLTYuNzA3IGwgMC4zMTIgLTAuMDg4IGwgMC4zMjggLTAuMDkyIGwgMC4zNDkgLTAuMDk4IHYgNy4yOTIgbCAtMC4zNDkgLTAuMTA4IGwgLTAuMzI4IC0wLjEwMiBaIG0gMS40MzYgMC40NDUgbCAtMC4zOTIgLTAuMTIxIHYgLTcuNTA5IGwgMC4zOTIgLTAuMTEgbCAwLjQxNSAtMC4xMTcgbCAwLjQ0NCAtMC4xMjUgdiA4LjI0OSBsIC0wLjQ0NCAtMC4xMzggbCAtMC40MTUgLTAuMTI5IFogbSAxLjg0IDAuNTY5IGwgLTAuNTA4IC0wLjE1NyB2IC04LjUyOCBsIDAuNTA4IC0wLjE0MyBsIDAuNTQyIC0wLjE1MyBsIDAuNTg2IC0wLjE2NSB2IDkuNDk2IGwgLTAuNTg2IC0wLjE4MSBsIC0wLjU0MiAtMC4xNjkgWiIvPiYjeGE7PHBhdGggY2xhc3M9Im1zcG9ydGFsZngtc3ZnLWMxNyIgZmlsbD0iIzgwNDk5OCIgZD0iTSAxNC42MSAyOC4yMSBsIC03LjY0OCAyLjkyIFYgMTguNzk4IGwgNy42NDggMi43MDggWiIvPiYjeGE7PHBhdGggY2xhc3M9Im1zcG9ydGFsZngtc3ZnLWMyMCIgZmlsbD0iIzY4MjE3YSIgZD0iTSAwLjAwOCAyMC44MjYgdiA4LjEgbCA1LjcyOCAyLjE3OSBWIDE4Ljc5OCBMIDAuMDA4IDIwLjgyNiBaIG0gMC42MjcgNy41MTMgbCAtMC4zMTIgLTAuMDk3IHYgLTYuNzA3IGwgMC4zMTIgLTAuMDg4IGwgMC4zMjggLTAuMDkyIGwgMC4zNDkgLTAuMDk4IHYgNy4yOTIgbCAtMC4zNDkgLTAuMTA4IGwgLTAuMzI4IC0wLjEwMiBaIG0gMS40MzYgMC40NDUgbCAtMC4zOTIgLTAuMTIxIHYgLTcuNTA5IGwgMC4zOTIgLTAuMTEgbCAwLjQxNSAtMC4xMTcgbCAwLjQ0NSAtMC4xMjcgdiA4LjI0OSBsIC0wLjQ0NCAtMC4xMzggbCAtMC40MTYgLTAuMTI3IFogbSAxLjg0IDAuNTY5IGwgLTAuNTA4IC0wLjE1NyB2IC04LjUyOCBsIDAuNTA4IC0wLjE0MyBsIDAuNTQyIC0wLjE1MyBsIDAuNTg2IC0wLjE2NSB2IDkuNDk2IGwgLTAuNTg2IC0wLjE4MSBsIC0wLjU0MiAtMC4xNjkgWiIvPiYjeGE7PHBhdGggY2xhc3M9Im1zcG9ydGFsZngtc3ZnLWMxNyIgZmlsbD0iIzgwNDk5OCIgZD0iTSA1MCAyOC4yMSBsIC03LjY0OCAyLjkyIFYgMTguNzk4IEwgNTAgMjEuNTA2IFoiLz4mI3hhOzxwYXRoIGNsYXNzPSJtc3BvcnRhbGZ4LXN2Zy1jMjAiIGZpbGw9IiM2ODIxN2EiIGQ9Ik0gMzUuMzk4IDIwLjgyNiB2IDguMSBsIDUuNzI4IDIuMTc5IFYgMTguNzk4IGwgLTUuNzI4IDIuMDI4IFogbSAwLjYyNyA3LjUxMyBsIC0wLjMxMiAtMC4wOTcgdiAtNi43MDcgbCAwLjMxMiAtMC4wODggbCAwLjMyOCAtMC4wOTIgbCAwLjM0OSAtMC4wOTggdiA3LjI5MiBsIC0wLjM0OSAtMC4xMDggbCAtMC4zMjggLTAuMTAyIFogbSAxLjQzNiAwLjQ0NSBsIC0wLjM5MiAtMC4xMjEgdiAtNy41MDkgbCAwLjM5MiAtMC4xMSBsIDAuNDE1IC0wLjExNyBsIDAuNDQ0IC0wLjEyNSB2IDguMjQ5IGwgLTAuNDQ0IC0wLjEzOCBsIC0wLjQxNSAtMC4xMjkgWiBtIDEuODQgMC41NjkgbCAtMC41MDggLTAuMTU3IHYgLTguNTI4IGwgMC41MDggLTAuMTQzIGwgMC41NDIgLTAuMTUzIGwgMC41ODYgLTAuMTY1IHYgOS40OTYgbCAtMC41ODYgLTAuMTgxIGwgLTAuNTQyIC0wLjE2OSBaIi8+JiN4YTs8L2c+JiN4YTs8L3N2Zz4=;labelPosition=right;align=left;fontSize=12;" parent="1" vertex="1">
                    <mxGeometry x="353" y="601" width="50" height="50" as="geometry"/>
                </mxCell>
                <mxCell id="6TbM0mQEEboQS2Itlm_B-53" style="rounded=0;orthogonalLoop=1;jettySize=auto;html=1;endArrow=classic;endFill=1;strokeColor=#FF0000;" parent="1" source="6TbM0mQEEboQS2Itlm_B-8" edge="1">
                    <mxGeometry relative="1" as="geometry">
                        <mxPoint x="460" y="790" as="targetPoint"/>
                    </mxGeometry>
                </mxCell>
                <mxCell id="6TbM0mQEEboQS2Itlm_B-8" value="Key Vault&#10;kv-&lt;env&gt;-03-kv" style="shape=image;verticalLabelPosition=middle;labelBackgroundColor=#ffffff;verticalAlign=middle;aspect=fixed;imageAspect=0;image=data:image/svg+xml,PHN2ZyB4bWxucz0iaHR0cDovL3d3dy53My5vcmcvMjAwMC9zdmciIHhtbG5zOnhsaW5rPSJodHRwOi8vd3d3LnczLm9yZy8xOTk5L3hsaW5rIiB4bWxuczpzdmc9Imh0dHA6Ly93d3cudzMub3JnLzIwMDAvc3ZnIiBjbGFzcz0iIiBpZD0iRnhTeW1ib2wwLTA0OCIgcm9sZT0icHJlc2VudGF0aW9uIiB2aWV3Qm94PSIwIDAgMjQgMjQiIGZvY3VzYWJsZT0iZmFsc2UiPiYjeGE7PGc+JiN4YTs8dGl0bGUvPiYjeGE7PHBhdGggY2xhc3M9Im1zcG9ydGFsZngtc3ZnLWMxMSIgZmlsbD0iI2ZjZDExNiIgZD0iTSAxMS41IDEgQyA4LjUgMSA2IDMuNSA2IDYuNSBDIDYgOSA3LjYgMTEgOS43IDExLjcgTCA4LjUgMTMgbCAxLjUgMS4zIGwgLTEuNSAxLjQgTCAxMCAxNyBsIC0xLjUgMS41IGwgMyAyLjggbCAyLjUgLTIuNiB2IC03LjMgYyAxLjggLTEgMyAtMi44IDMgLTUgYyAwIC0zIC0yLjUgLTUuNCAtNS41IC01LjQgWiBtIDEgNCBzIC0wLjIgMCAtMC4zIDAuMiBzIC0wLjIgMC4yIC0wLjMgMC4yIEggMTEgbCAtMC4yIC0wLjIgbCAtMC4yIC0wLjMgViA0IGwgMC4yIC0wLjIgbCAwLjMgLTAuMiBoIDAuOSBsIDAuMiAwLjIgbCAwLjIgMC4zIFYgNSBaIi8+JiN4YTs8cGF0aCBjbGFzcz0ibXNwb3J0YWxmeC1zdmctYzEwIiBvcGFjaXR5PSIwLjQiIGZpbGw9IiNmZjhjMDAiIGQ9Ik0gMTIgMTIgdiA3LjIgbCAxIC0xIHYgLTYuNCBhIDUuNSA1LjUgMCAwIDEgLTEgMC4yIFoiLz4mI3hhOzxwYXRoIGNsYXNzPSJtc3BvcnRhbGZ4LXN2Zy1jMDEiIG9wYWNpdHk9IjAuNCIgZmlsbD0iI2ZmZmZmZiIgZD0iTSAxMS41IDEwIEEgMy41IDMuNSAwIDAgMCAxNSA3IEggOCBhIDMuNSAzLjUgMCAwIDAgMy41IDMgWiIvPiYjeGE7PHBhdGggY2xhc3M9Im1zcG9ydGFsZngtc3ZnLWMxNCIgZmlsbD0iIzdmYmEwMCIgZD0iTSAxNy40IDMuOCBjIDAuMyAwLjYgMC40IDEgMC41IDEuNyBhIDkuNSA5LjUgMCAwIDEgMyA3IGMgMCA1LjIgLTQuMyA5LjUgLTkuNSA5LjUgUyAyIDE3LjcgMiAxMi41IGEgOS41IDkuNSAwIDAgMSAzIC03IGwgMC42IC0xLjcgQSAxMC41IDEwLjUgMCAwIDAgMSAxMi41IEMgMSAxOC4zIDUuNyAyMyAxMS41IDIzIFMgMjIgMTguMyAyMiAxMi41IGMgMCAtMy42IC0xLjggLTYuOCAtNC42IC04LjcgWiIvPiYjeGE7PC9nPiYjeGE7PC9zdmc+;fontSize=12;align=left;labelPosition=right;" parent="1" vertex="1">
                    <mxGeometry x="260" y="660" width="40" height="40" as="geometry"/>
                </mxCell>
                <mxCell id="6TbM0mQEEboQS2Itlm_B-9" value="Storage Account&#10;st&lt;environment&gt;" style="shape=image;verticalLabelPosition=middle;labelBackgroundColor=#ffffff;verticalAlign=middle;aspect=fixed;imageAspect=0;image=data:image/svg+xml,PHN2ZyB4bWxucz0iaHR0cDovL3d3dy53My5vcmcvMjAwMC9zdmciIHhtbG5zOnhsaW5rPSJodHRwOi8vd3d3LnczLm9yZy8xOTk5L3hsaW5rIiB2ZXJzaW9uPSIxLjEiIGlkPSJMYXllcl8xIiB4PSIwcHgiIHk9IjBweCIgd2lkdGg9IjUwcHgiIGhlaWdodD0iNTBweCIgdmlld0JveD0iMCAwIDUwIDUwIiBlbmFibGUtYmFja2dyb3VuZD0ibmV3IDAgMCA1MCA1MCIgeG1sOnNwYWNlPSJwcmVzZXJ2ZSI+JiN4YTs8cGF0aCBmaWxsPSIjM0UzRTNFIiBkPSJNNDQsNTBINmMtMy4zMTQsMC02LTIuNjg2LTYtNlY1aDUwdjM5QzUwLDQ3LjMxNCw0Ny4zMTQsNTAsNDQsNTB6Ii8+JiN4YTs8cmVjdCB4PSI0IiB5PSIxNiIgb3BhY2l0eT0iMC45IiBmaWxsPSIjRkNEMTE2IiB3aWR0aD0iNDIiIGhlaWdodD0iMTEiLz4mI3hhOzxyZWN0IHg9IjQiIHk9IjMxIiBmaWxsPSIjN0ZCQTAwIiB3aWR0aD0iNDIiIGhlaWdodD0iMTUiLz4mI3hhOzxyZWN0IHg9IjQiIHk9IjUiIG9wYWNpdHk9IjAuOSIgZmlsbD0iI0ZGRkZGRiIgd2lkdGg9IjQyIiBoZWlnaHQ9IjciLz4mI3hhOzxyZWN0IHg9IjQiIHk9IjMxIiBvcGFjaXR5PSIwLjMiIGZpbGw9IiNGRkZGRkYiIGVuYWJsZS1iYWNrZ3JvdW5kPSJuZXcgICAgIiB3aWR0aD0iNDIiIGhlaWdodD0iMiIvPiYjeGE7PHJlY3QgeD0iNCIgeT0iMTYiIG9wYWNpdHk9IjAuMyIgZmlsbD0iI0ZGRkZGRiIgZW5hYmxlLWJhY2tncm91bmQ9Im5ldyAgICAiIHdpZHRoPSI0MiIgaGVpZ2h0PSIyIi8+JiN4YTs8cGF0aCBvcGFjaXR5PSIwLjE1IiBmaWxsPSIjRkZGRkZGIiBlbmFibGUtYmFja2dyb3VuZD0ibmV3ICAgICIgZD0iTTAsNXY0Mi42OTNDMCw0OC45MDcsMC45ODUsNDkuOSwyLjE4OCw0OS45SDhMNDAsNUgweiIvPiYjeGE7PC9zdmc+;fontSize=12;align=left;labelPosition=right;" parent="1" vertex="1">
                    <mxGeometry x="80.01" y="560" width="40" height="40" as="geometry"/>
                </mxCell>
                <mxCell id="6TbM0mQEEboQS2Itlm_B-14" value="&lt;b&gt;DPL Platform&lt;/b&gt;&lt;br&gt;Azure Infrastructure&lt;br&gt;Updated 2021-08-31" style="text;html=1;align=left;verticalAlign=middle;resizable=0;points=[];autosize=1;" parent="1" vertex="1">
                    <mxGeometry x="1030" y="10" width="130" height="50" as="geometry"/>
                </mxCell>
                <mxCell id="6TbM0mQEEboQS2Itlm_B-17" value="" style="whiteSpace=wrap;html=1;fontSize=8;fillColor=none;strokeColor=#3999C6;movable=1;resizable=1;rotatable=1;deletable=1;editable=1;connectable=1;" parent="1" vertex="1">
                    <mxGeometry x="80" y="341" width="273" height="140" as="geometry"/>
                </mxCell>
                <mxCell id="6TbM0mQEEboQS2Itlm_B-19" style="edgeStyle=orthogonalEdgeStyle;rounded=0;orthogonalLoop=1;jettySize=auto;html=1;entryX=0;entryY=0.5;entryDx=0;entryDy=0;endArrow=none;endFill=0;" parent="1" source="6TbM0mQEEboQS2Itlm_B-11" target="6TbM0mQEEboQS2Itlm_B-18" edge="1">
                    <mxGeometry relative="1" as="geometry"/>
                </mxCell>
                <mxCell id="6TbM0mQEEboQS2Itlm_B-11" value="Subnet&#10;subnet-aks" style="shape=image;verticalLabelPosition=middle;labelBackgroundColor=#ffffff;verticalAlign=middle;aspect=fixed;imageAspect=0;image=data:image/svg+xml,PHN2ZyB4bWxucz0iaHR0cDovL3d3dy53My5vcmcvMjAwMC9zdmciIHhtbG5zOnhsaW5rPSJodHRwOi8vd3d3LnczLm9yZy8xOTk5L3hsaW5rIiB2ZXJzaW9uPSIxLjEiIGlkPSJMYXllcl8xIiB4PSIwcHgiIHk9IjBweCIgaGVpZ2h0PSI1MHB4IiB3aWR0aD0iNTBweCIgdmlld0JveD0iMCAwIDUwIDUwIiBlbmFibGUtYmFja2dyb3VuZD0ibmV3IDAgMCA1MCA1MCIgeG1sOnNwYWNlPSJwcmVzZXJ2ZSI+JiN4YTsJPHBhdGggZmlsbD0iIzM5OTlDNiIgZD0iTTQ5LjcsMjUuN2MwLjUtMC41LDAuNC0xLjMsMC0xLjhsLTIuNC0yLjRMMzYuNSwxMWMtMC41LTAuNS0xLjItMC41LTEuNywwbDAsMGMtMC41LDAuNS0wLjYsMS4zLDAsMS44ICBsMTEuMywxMS4xYzAuNSwwLjUsMC41LDEuMywwLDEuOEwzNC42LDM3LjJjLTAuNSwwLjUtMC41LDEuMywwLDEuOGwwLDBjMC41LDAuNSwxLjMsMC40LDEuNywwbDEwLjctMTAuNmMwLDAsMCwwLDAuMS0wLjFMNDkuNywyNS43ICB6Ii8+JiN4YTsJPHBhdGggZmlsbD0iIzM5OTlDNiIgZD0iTTAuMywyNS43Yy0wLjUtMC41LTAuNC0xLjMsMC0xLjhsMi40LTIuNEwxMy41LDExYzAuNS0wLjUsMS4yLTAuNSwxLjcsMGwwLDBjMC41LDAuNSwwLjYsMS4zLDAsMS44ICBMNC4xLDIzLjljLTAuNSwwLjUtMC41LDEuMywwLDEuOGwxMS4zLDExLjVjMC41LDAuNSwwLjUsMS4zLDAsMS44bDAsMGMtMC41LDAuNS0xLjMsMC40LTEuNywwTDIuOCwyOC41YzAsMCwwLDAtMC4xLTAuMUwwLjMsMjUuN3oiLz4mI3hhOwk8cGF0aCBmaWxsPSIjN0ZCQTAwIiBkPSJNMjguMywyNC44YzAsMS45LTEuNiwzLjMtMy4zLDMuM3MtMy41LTEuNi0zLjUtMy4zczEuNi0zLjMsMy41LTMuM1MyOC4zLDIzLjEsMjguMywyNC44eiIvPiYjeGE7PC9zdmc+;labelPosition=right;align=left;" parent="1" vertex="1">
                    <mxGeometry x="97" y="359" width="40" height="40" as="geometry"/>
                </mxCell>
                <mxCell id="6TbM0mQEEboQS2Itlm_B-42" value="Filters&lt;br&gt;Access" style="edgeStyle=orthogonalEdgeStyle;rounded=0;orthogonalLoop=1;jettySize=auto;html=1;entryX=0;entryY=0.5;entryDx=0;entryDy=0;strokeColor=#000000;" parent="1" source="6TbM0mQEEboQS2Itlm_B-18" target="6TbM0mQEEboQS2Itlm_B-41" edge="1">
                    <mxGeometry relative="1" as="geometry">
                        <Array as="points">
                            <mxPoint x="60" y="438"/>
                            <mxPoint x="60" y="510"/>
                            <mxPoint x="120" y="510"/>
                        </Array>
                    </mxGeometry>
                </mxCell>
                <mxCell id="6TbM0mQEEboQS2Itlm_B-18" value="ServiceEndpoints&#10;- Microsoft.SQL&#10;- Microsoft.ContainerRegistry&#10;- Microsoft.Storage" style="shape=image;verticalLabelPosition=middle;labelBackgroundColor=none;verticalAlign=middle;aspect=fixed;imageAspect=0;image=data:image/svg+xml,PHN2ZyB4bWxucz0iaHR0cDovL3d3dy53My5vcmcvMjAwMC9zdmciIHZpZXdCb3g9IjAgMCA1MCA1MCIgY2xhc3M9ImZ4dC1lc2NhcGVTaGFkb3ciIHJvbGU9InByZXNlbnRhdGlvbiIgZm9jdXNhYmxlPSJmYWxzZSIgYXJpYS1oaWRkZW49InRydWUiPiYjeGE7ICA8Zz4mI3hhOyAgICA8cGF0aCBkPSJNNDcuOTQxIDE0LjY2OGMuNDY1LS40NjUuMzcyLTEuMjA5IDAtMS42NzVsLTIuMjMzLTIuMjMzTDM1LjY2Ljk5MmMtLjQ2NS0uNDY1LTEuMTE2LS40NjUtMS41ODIgMC0uNDY1LjQ2NS0uNTU4IDEuMjA5IDAgMS42NzVsMTAuNTEzIDEwLjMyN2ExLjE4IDEuMTggMCAwIDEgMCAxLjY3NUwzMy44OTMgMjUuMzY3YTEuMTggMS4xOCAwIDAgMCAwIDEuNjc1Yy40NjUuNDY1IDEuMjA5LjM3MiAxLjU4MiAwbDkuOTU1LTkuODYyLjA5My0uMDkzIDIuNDE4LTIuNDE5em0tNDUuOTYgMGMtLjQ2NS0uNDY1LS4zNzItMS4yMDkgMC0xLjY3NWwyLjIzMy0yLjIzM0wxNC4yNjIuOTkxYy40NjUtLjQ2NSAxLjExNi0uNDY1IDEuNTgyIDAgLjQ2NS40NjUuNTU4IDEuMjA5IDAgMS42NzVMNS41MTcgMTIuOTk0YTEuMTggMS4xOCAwIDAgMCAwIDEuNjc1TDE2LjAzIDI1LjM2N2ExLjE4IDEuMTggMCAwIDEgMCAxLjY3NWMtLjQ2NS40NjUtMS4yMDkuMzcyLTEuNTgyIDBMNC4zMDcgMTcuMjczbC0uMDkzLS4wOTMtMi4yMzMtMi41MTJ6IiBjbGFzcz0ibXNwb3J0YWxmeC1zdmctYzE2IiBzdHlsZT0iZmlsbDogcmdiKDU3LCAxNTMsIDE5OCk7Ii8+JiN4YTsgICAgPHBhdGggZD0iTTE4LjUgMTRjMCAyLjAxNS0xLjY0NyAzLjUtMy4zOTcgMy41LTEuNzUgMC0zLjYwMy0xLjY5Ny0zLjYwMy0zLjVzMS40NDEtMy41IDMuNjAzLTMuNWMyLjA1OSAwIDMuMzk3IDEuNjk3IDMuMzk3IDMuNXoiIGNsYXNzPSJtc3BvcnRhbGZ4LXN2Zy1jMTQiIHN0eWxlPSJmaWxsOiByZ2IoODcsIDE2MywgMCk7Ii8+JiN4YTsgICAgPGNpcmNsZSBjeD0iMzUiIGN5PSIxNCIgcj0iMy41IiBjbGFzcz0ibXNwb3J0YWxmeC1zdmctYzE0IiBzdHlsZT0iZmlsbDogcmdiKDg3LCAxNjMsIDApOyIvPiYjeGE7ICAgIDxwYXRoIGQ9Ik00MSAzNmMtLjM1NCAwLS42OTguMDM1LTEuMDM4LjA4NXYtLjAwOGMwLTcuNjAxLTYuMTExLTEzLjc2My0xMy42NDctMTMuNzYzLTYuMDIyIDAtMTEuMTI3IDMuOTMyLTEyLjk0IDkuMzlhOS4xNTcgOS4xNTcgMCAwIDAtMy4wNDctLjUyNkM1LjE3MyAzMS4xNzggMSAzNS4zOTEgMSA0MC41ODdjMCA1LjE5OSA0LjE3MiA5LjQxMiA5LjMyOCA5LjQxMmwuMDEzLS4wMDNWNTBoMzAuMTc2di0uMDAybC4wMzIuMDAyYy4wNzYgMCAuMTUtLjAwOS4yMjUtLjAxMS4wNzYuMDAyLjE1LjAxMS4yMjYuMDExYTcgNyAwIDEgMCAwLTE0eiIgY2xhc3M9Im1zcG9ydGFsZngtc3ZnLWMxNSIgc3R5bGU9ImZpbGw6IHJnYig4OSwgMTgwLCAyMTcpOyIvPiYjeGE7ICAgIDxwYXRoIGQ9Ik0yMyAxNmg0djIzaC00eiIgY2xhc3M9Im1zcG9ydGFsZngtc3ZnLWMwMSIgc3R5bGU9ImZpbGw6IHJnYigyNTUsIDI1NSwgMjU1KTsiLz4mI3hhOyAgICA8cGF0aCBvcGFjaXR5PSIuMiIgZD0iTTIyLjA4NSAzMy4wMjFhMTMuNTAzIDEzLjUwMyAwIDAgMSA3LjAxNC0xMC40MDhjLS45LS4xOS0xLjgyOC0uMy0yLjc4NC0uMy02LjAyMSAwLTExLjEyNyAzLjkzMi0xMi45NCA5LjM5YTkuMTUyIDkuMTUyIDAgMCAwLTMuMDQ3LS41MjZDNS4xNzIgMzEuMTc4IDEgMzUuMzkxIDEgNDAuNTg3YzAgNS4xOTkgNC4xNzIgOS40MTIgOS4zMjcgOS40MTJsLjAxMy0uMDAzVjUwaDMuOTIzQTEwLjQ0OSAxMC40NDkgMCAwIDEgMTIgNDMuNWMwLTUuNjU5IDQuNDgtMTAuMjU5IDEwLjA4NS0xMC40Nzl6IiBjbGFzcz0ibXNwb3J0YWxmeC1zdmctYzAxIiBzdHlsZT0iZmlsbDogcmdiKDI1NSwgMjU1LCAyNTUpOyIvPiYjeGE7ICAgIDxwYXRoIGQ9Ik0yOC41IDE0YzAgMi4wMTUtMS42NDcgMy41LTMuMzk3IDMuNVMyMS41IDE1LjgwMyAyMS41IDE0czEuNjQ3LTMuNSAzLjYwMy0zLjVTMjguNSAxMi4xOTcgMjguNSAxNHoiIGNsYXNzPSJtc3BvcnRhbGZ4LXN2Zy1jMTQiIHN0eWxlPSJmaWxsOiByZ2IoODcsIDE2MywgMCk7Ii8+JiN4YTsgICAgPHBhdGggZD0iTTI3IDM0LjQxOXYtMTIuMDdjLS4yMjgtLjAxMS0uNDUzLS4wMzUtLjY4NC0uMDM1LTEuMTQ0IDAtMi4yNTQuMTQzLTMuMzE2LjQxMXYxMS43NzZjLTEuMjMxLjczMi0yLjEgMi4wNDktMi4xIDMuNDk5IDAgMi4xMDcgMi4wMzQgNC4xMDEgNC4xODYgNC4xMDEgMi4yMTQgMCA0LjAxNS0xLjg0IDQuMDE1LTQuMTAxQTQuMTAzIDQuMTAzIDAgMCAwIDI3IDM0LjQxOXoiIGNsYXNzPSJtc3BvcnRhbGZ4LXN2Zy1jMDEiIHN0eWxlPSJmaWxsOiByZ2IoMjU1LCAyNTUsIDI1NSk7Ii8+JiN4YTsgICAgPHBhdGggZD0iTTI3LjkgMzhjMCAxLjY3LTEuMzY1IDIuOS0yLjgxNSAyLjlTMjIuMSAzOS40OTQgMjIuMSAzOHMxLjM2NS0yLjkgMi45ODUtMi45UzI3LjkgMzYuNTA2IDI3LjkgMzh6IiBjbGFzcz0ibXNwb3J0YWxmeC1zdmctYzE0IiBzdHlsZT0iZmlsbDogcmdiKDg3LCAxNjMsIDApOyIvPiYjeGE7ICAgIDxwYXRoIGQ9Ik0yNiAxN3YyMWgtMlYxN3oiIGNsYXNzPSJtc3BvcnRhbGZ4LXN2Zy1jMTQiIHN0eWxlPSJmaWxsOiByZ2IoODcsIDE2MywgMCk7Ii8+JiN4YTsgIDwvZz4mI3hhOzwvc3ZnPg==;labelPosition=right;align=left;fontSize=12;" parent="1" vertex="1">
                    <mxGeometry x="137" y="418" width="40" height="40" as="geometry"/>
                </mxCell>
                <mxCell id="6TbM0mQEEboQS2Itlm_B-20" value="&lt;span style=&quot;text-align: left ; background-color: rgb(248 , 249 , 250)&quot;&gt;MC-&lt;/span&gt;&lt;span style=&quot;background-color: rgb(248 , 249 , 250)&quot;&gt;rg-env-&amp;lt;environment&amp;gt;_aks...&lt;/span&gt;" style="aspect=fixed;html=1;points=[];align=left;image;fontSize=12;image=img/lib/mscae/ResourceGroup.svg;dashed=1;strokeWidth=2;fillColor=none;labelPosition=right;verticalLabelPosition=middle;verticalAlign=middle;" parent="1" vertex="1">
                    <mxGeometry x="600" y="368" width="40" height="32" as="geometry"/>
                </mxCell>
                <mxCell id="6TbM0mQEEboQS2Itlm_B-21" value="" style="rounded=0;whiteSpace=wrap;html=1;movable=1;resizable=1;rotatable=1;deletable=1;editable=1;connectable=1;fillColor=none;" parent="1" vertex="1">
                    <mxGeometry x="640" y="400" width="280" height="360" as="geometry"/>
                </mxCell>
                <mxCell id="6TbM0mQEEboQS2Itlm_B-25" style="edgeStyle=orthogonalEdgeStyle;rounded=0;orthogonalLoop=1;jettySize=auto;html=1;entryX=0.5;entryY=0;entryDx=0;entryDy=0;" parent="1" source="6TbM0mQEEboQS2Itlm_B-22" target="6TbM0mQEEboQS2Itlm_B-3" edge="1">
                    <mxGeometry relative="1" as="geometry"/>
                </mxCell>
                <mxCell id="6TbM0mQEEboQS2Itlm_B-26" value="Uses" style="edgeStyle=orthogonalEdgeStyle;rounded=0;orthogonalLoop=1;jettySize=auto;html=1;entryX=0.5;entryY=0;entryDx=0;entryDy=0;" parent="1" source="6TbM0mQEEboQS2Itlm_B-22" target="6TbM0mQEEboQS2Itlm_B-4" edge="1">
                    <mxGeometry relative="1" as="geometry"/>
                </mxCell>
                <mxCell id="6TbM0mQEEboQS2Itlm_B-22" value="Load balancer&lt;br&gt;&lt;div style=&quot;text-align: left&quot;&gt;kubernetes&lt;/div&gt;&lt;div style=&quot;text-align: left&quot;&gt;(external)&lt;/div&gt;" style="aspect=fixed;html=1;points=[];align=left;image;fontSize=12;image=img/lib/mscae/Load_Balancer_feature.svg;dashed=1;strokeColor=#3999c6;fillColor=none;labelPosition=right;verticalLabelPosition=middle;verticalAlign=middle;" parent="1" vertex="1">
                    <mxGeometry x="680" y="450" width="40" height="40" as="geometry"/>
                </mxCell>
                <mxCell id="6TbM0mQEEboQS2Itlm_B-27" value="RBAC&lt;br&gt;NetworkContributor" style="edgeStyle=orthogonalEdgeStyle;rounded=0;orthogonalLoop=1;jettySize=auto;html=1;fillColor=#f8cecc;strokeColor=#FF0000;exitDx=0;exitDy=0;exitX=0.5;exitY=1;" parent="1" source="6TbM0mQEEboQS2Itlm_B-38" target="6TbM0mQEEboQS2Itlm_B-3" edge="1">
                    <mxGeometry relative="1" as="geometry">
                        <Array as="points">
                            <mxPoint x="748" y="310"/>
                            <mxPoint x="470" y="310"/>
                        </Array>
                    </mxGeometry>
                </mxCell>
                <mxCell id="6TbM0mQEEboQS2Itlm_B-23" value="Managed Identity&#10;aks-&lt;environment&gt;-01-agentpool" style="shape=image;verticalLabelPosition=middle;labelBackgroundColor=#ffffff;verticalAlign=middle;aspect=fixed;imageAspect=0;image=data:image/svg+xml,PHN2ZyB4bWxucz0iaHR0cDovL3d3dy53My5vcmcvMjAwMC9zdmciIHhtbG5zOnhsaW5rPSJodHRwOi8vd3d3LnczLm9yZy8xOTk5L3hsaW5rIiB4bWxuczpzdmc9Imh0dHA6Ly93d3cudzMub3JnLzIwMDAvc3ZnIiBjbGFzcz0iZnhzLXBvcnRhbC1zdmciIGlkPSJGeFN5bWJvbDAtMGMwIiByb2xlPSJwcmVzZW50YXRpb24iIHZpZXdCb3g9IjAgMCA3Ni4wMzEgMTAwIiBmb2N1c2FibGU9ImZhbHNlIj4mI3hhOzxnPiYjeGE7PHRpdGxlLz4mI3hhOzx0aXRsZT5NU0lfMjwvdGl0bGU+JiN4YTs8cGF0aCBjbGFzcz0ibXNwb3J0YWxmeC1zdmctYzExIiBmaWxsPSIjZmNkMTE2IiBkPSJNIDI4LjI4NCA4MS44NSBhIDUuMDcgNS4wNyAwIDAgMSAwIC03LjE3MiBsIDExLjEyOCAtMTEuMTI3IFYgNTMuNiBsIDE2LjQzMyAtMTYuNDM0IGEgMTAuODMgMTAuODMgMCAwIDAgMCAtMTUuMzE0IEwgMzcuMTY2IDMuMTcyIGEgMTAuODMxIDEwLjgzMSAwIDAgMCAtMTUuMzE2IDAgTCAzLjE3MiAyMS44NTIgYSAxMC44MjggMTAuODI4IDAgMCAwIDAgMTUuMzE0IEwgMjAuOTA4IDU0LjkgdiAxLjUgbCAtNS4wNDkgNS4wNSBsIDUuMDA1IDUuMDA1IGwgLTUuMDA1IDUgbCA1LjAwNSA1LjAwNSBsIC01LjAwNSA1IGwgNS4wNDkgNS4wNSB2IDAuMDYzIGwgOC42IDguNiBsIDYuMDUxIC02LjA1MSBaIG0gLTQuOTIzIC02OC4wMTYgYSA2LjE0NyA2LjE0NyAwIDEgMSA2LjE0NyA2LjE0NyBhIDYuMTQ4IDYuMTQ4IDAgMCAxIC02LjE0NyAtNi4xNDcgWiIvPiYjeGE7PHBhdGggY2xhc3M9Im1zcG9ydGFsZngtc3ZnLWMwMSIgb3BhY2l0eT0iMC41IiBmaWxsPSIjZmZmZmZmIiBkPSJNIDEyLjM2NCAyNS45MiBoIDM1LjQ4MiB2IDUuMSBIIDEyLjM2NCBaIG0gMCA4LjI5NyBoIDM1LjQ4MiB2IDUuMSBIIDEyLjM2NCBaIi8+JiN4YTs8cGF0aCBjbGFzcz0ibXNwb3J0YWxmeC1zdmctYzE1IiBmaWxsPSIjNTliNGQ5IiBkPSJNIDU0LjMgMTAwIGEgMy45NzggMy45NzggMCAwIDEgLTIuODM1IC0xLjE3NSBMIDMzLjczNSA4MS4xIGEgNC4wMDggNC4wMDggMCAwIDEgMCAtNS42NyBMIDUxLjQ2MSA1Ny43IGEgNC4wMDUgNC4wMDUgMCAwIDEgNS42NyAwIGwgMTcuNzI0IDE3LjcyOSBhIDQuMDA2IDQuMDA2IDAgMCAxIDAgNS42NzIgTCA1Ny4xMzEgOTguODI1IEEgMy45NzggMy45NzggMCAwIDEgNTQuMyAxMDAiLz4mI3hhOzxwYXRoIGNsYXNzPSJtc3BvcnRhbGZ4LXN2Zy1jMDEiIGZpbGw9IiNmZmZmZmYiIGQ9Ik0gNjYuMTMyIDc0Ljg2NyBhIDMuMzkzIDMuMzkzIDAgMCAwIC0yLjgzOSA1LjI2MiBsIC02LjczMyA2LjczMiBhIDMuOTkxIDMuOTkxIDAgMCAwIC0wLjU3IC0wLjMyNCBWIDY5LjM2IGEgMy40IDMuNCAwIDEgMCAtMy4zODggMCB2IDE3LjE3NiBhIDMuOTI5IDMuOTI5IDAgMCAwIC0wLjU1IDAuMzA3IGwgLTYuNzQgLTYuNzQgYSAzLjQ5MyAzLjQ5MyAwIDEgMCAtMS43NDQgMS4zNjEgbCA3LjA4NSA3LjA4NiBhIDMuOTU3IDMuOTU3IDAgMSAwIDcuMjkyIDAuMDI4IGwgNy4xMDYgLTcuMTA1IGEgMy4zNTYgMy4zNTYgMCAwIDAgMS4wNzkgMC4xOTEgYSAzLjQgMy40IDAgMCAwIDAgLTYuOCBaIi8+JiN4YTs8cGF0aCBjbGFzcz0ibXNwb3J0YWxmeC1zdmctYzAxIiBvcGFjaXR5PSIwLjUiIGZpbGw9IiNmZmZmZmYiIGQ9Ik0gNTMuNDg0IDY3LjA5MiBsIDEuNTUgLTEuNTUyIGwgMTIuNzE0IDEyLjcxIGwgLTEuNTUyIDEuNTUxIFoiLz4mI3hhOzxwYXRoIGNsYXNzPSJtc3BvcnRhbGZ4LXN2Zy1jMDEiIG9wYWNpdHk9IjAuNSIgZmlsbD0iI2ZmZmZmZiIgZD0iTSA0MC44NTkgNzguMjYyIEwgNTMuNTcgNjUuNTUgbCAxLjU1MiAxLjU1MSBMIDQyLjQxIDc5LjgxMyBaIi8+JiN4YTs8cGF0aCBjbGFzcz0ibXNwb3J0YWxmeC1zdmctYzEzIiBmaWxsPSIjYjhkNDMyIiBkPSJNIDU2LjYxMiA5MC4xIGEgMi4zNTYgMi4zNTYgMCAxIDEgLTIuMzU2IC0yLjM1NSBhIDIuMzU1IDIuMzU1IDAgMCAxIDIuMzU2IDIuMzU1IG0gLTAuNDI3IC0yMy42NyBhIDEuODkgMS44OSAwIDEgMSAtMS44OSAtMS44OSBhIDEuODg5IDEuODg5IDAgMCAxIDEuODkgMS44OSBNIDQ0LjM1MiA3OC4yNjUgYSAxLjg5IDEuODkgMCAxIDEgLTEuODkgLTEuODkgYSAxLjg5MSAxLjg5MSAwIDAgMSAxLjg5IDEuODkgbSAyMy42NyAwIGEgMS44OTEgMS44OTEgMCAxIDEgLTEuODkxIC0xLjg5IGEgMS44OTEgMS44OTEgMCAwIDEgMS44OTEgMS44OSIvPiYjeGE7PHBhdGggY2xhc3M9Im1zcG9ydGFsZngtc3ZnLWMwMSIgb3BhY2l0eT0iMC4xIiBmaWxsPSIjZmZmZmZmIiBkPSJNIDU3LjEzMSA1Ny43IGEgNCA0IDAgMCAwIC01LjY2OSAwIEwgMzMuNzM1IDc1LjQyOSBhIDQuMDA4IDQuMDA4IDAgMCAwIDAgNS42NyBsIDEwLjAzNiAxMC4wMzYgTCA2Mi42NSA2My4yMjIgWiIvPiYjeGE7PHBhdGggY2xhc3M9Im1zcG9ydGFsZngtc3ZnLWMxMCIgb3BhY2l0eT0iMC40IiBmaWxsPSIjZmY4YzAwIiBkPSJNIDM0Ljc4OCA2OC4xMzcgdiAtMTIuOTIgbCAtMy44NjQgMS45MDMgdiAxNC44ODEgbCAzLjg2NCAtMy44NjQgWiIvPiYjeGE7PC9nPiYjeGE7PC9zdmc+;align=left;labelPosition=right;" parent="1" vertex="1">
                    <mxGeometry x="684.8" y="500" width="30.4" height="40" as="geometry"/>
                </mxCell>
                <mxCell id="6TbM0mQEEboQS2Itlm_B-35" value="Runs as" style="edgeStyle=orthogonalEdgeStyle;rounded=0;orthogonalLoop=1;jettySize=auto;html=1;entryX=0.5;entryY=1;entryDx=0;entryDy=0;strokeColor=#000000;" parent="1" source="6TbM0mQEEboQS2Itlm_B-24" target="6TbM0mQEEboQS2Itlm_B-23" edge="1">
                    <mxGeometry relative="1" as="geometry"/>
                </mxCell>
                <mxCell id="6TbM0mQEEboQS2Itlm_B-24" value="Virtual Machine ScaleSet&lt;br&gt;(pr kubernetes node pool)&lt;br&gt;" style="aspect=fixed;html=1;points=[];align=left;image;fontSize=12;image=img/lib/mscae/VM_Scale_Set.svg;dashed=1;strokeColor=#3999c6;fillColor=none;labelPosition=right;verticalLabelPosition=middle;verticalAlign=middle;" parent="1" vertex="1">
                    <mxGeometry x="680" y="606" width="40" height="40" as="geometry"/>
                </mxCell>
                <mxCell id="6TbM0mQEEboQS2Itlm_B-28" value="Network Security Group" style="aspect=fixed;html=1;points=[];align=left;image;fontSize=12;image=img/lib/azure2/networking/Network_Security_Groups.svg;labelPosition=right;verticalLabelPosition=middle;verticalAlign=middle;" parent="1" vertex="1">
                    <mxGeometry x="680" y="680" width="32.94" height="40" as="geometry"/>
                </mxCell>
                <mxCell id="6TbM0mQEEboQS2Itlm_B-52" value="Access" style="edgeStyle=orthogonalEdgeStyle;rounded=0;orthogonalLoop=1;jettySize=auto;html=1;endArrow=classic;endFill=1;strokeColor=#FF0000;" parent="1" source="6TbM0mQEEboQS2Itlm_B-33" target="6TbM0mQEEboQS2Itlm_B-22" edge="1">
                    <mxGeometry relative="1" as="geometry">
                        <Array as="points">
                            <mxPoint x="700" y="433"/>
                        </Array>
                    </mxGeometry>
                </mxCell>
                <mxCell id="6TbM0mQEEboQS2Itlm_B-33" value="Internet" style="ellipse;shape=cloud;whiteSpace=wrap;html=1;strokeWidth=2;fillColor=none;" parent="1" vertex="1">
                    <mxGeometry x="920" y="408" width="75" height="50" as="geometry"/>
                </mxCell>
                <mxCell id="6TbM0mQEEboQS2Itlm_B-36" value="&amp;nbsp;" style="rounded=0;whiteSpace=wrap;html=1;strokeWidth=1;fillColor=none;movable=1;resizable=1;rotatable=1;deletable=1;editable=1;connectable=1;dashed=1;" parent="1" vertex="1">
                    <mxGeometry x="712.94" y="230" width="180" height="120" as="geometry"/>
                </mxCell>
                <mxCell id="6TbM0mQEEboQS2Itlm_B-37" value="Managed by Azure&lt;br&gt;&lt;div style=&quot;text-align: left&quot;&gt;&lt;span&gt;Not visible to us&lt;/span&gt;&lt;/div&gt;" style="text;html=1;align=center;verticalAlign=middle;resizable=0;points=[];autosize=1;fontSize=12;fontStyle=2" parent="1" vertex="1">
                    <mxGeometry x="777.94" y="315" width="115" height="35" as="geometry"/>
                </mxCell>
                <mxCell id="6TbM0mQEEboQS2Itlm_B-45" value="RBAC&lt;br&gt;Virtual Machine Contributor +&amp;nbsp;&lt;br&gt;Storage Account Contributor" style="edgeStyle=orthogonalEdgeStyle;rounded=0;orthogonalLoop=1;jettySize=auto;html=1;entryX=0.75;entryY=0;entryDx=0;entryDy=0;endArrow=classic;endFill=1;strokeColor=#FF0000;" parent="1" source="6TbM0mQEEboQS2Itlm_B-38" target="B11YAzN58tQJIFsV2nfx-3" edge="1">
                    <mxGeometry relative="1" as="geometry"/>
                </mxCell>
                <mxCell id="6TbM0mQEEboQS2Itlm_B-38" value="Managed Identity&#10;&quot;control-plane&quot;&#10;aks-&lt;environment&gt;-01" style="shape=image;verticalLabelPosition=middle;labelBackgroundColor=#ffffff;verticalAlign=middle;aspect=fixed;imageAspect=0;image=data:image/svg+xml,PHN2ZyB4bWxucz0iaHR0cDovL3d3dy53My5vcmcvMjAwMC9zdmciIHhtbG5zOnhsaW5rPSJodHRwOi8vd3d3LnczLm9yZy8xOTk5L3hsaW5rIiB4bWxuczpzdmc9Imh0dHA6Ly93d3cudzMub3JnLzIwMDAvc3ZnIiBjbGFzcz0iZnhzLXBvcnRhbC1zdmciIGlkPSJGeFN5bWJvbDAtMGMwIiByb2xlPSJwcmVzZW50YXRpb24iIHZpZXdCb3g9IjAgMCA3Ni4wMzEgMTAwIiBmb2N1c2FibGU9ImZhbHNlIj4mI3hhOzxnPiYjeGE7PHRpdGxlLz4mI3hhOzx0aXRsZT5NU0lfMjwvdGl0bGU+JiN4YTs8cGF0aCBjbGFzcz0ibXNwb3J0YWxmeC1zdmctYzExIiBmaWxsPSIjZmNkMTE2IiBkPSJNIDI4LjI4NCA4MS44NSBhIDUuMDcgNS4wNyAwIDAgMSAwIC03LjE3MiBsIDExLjEyOCAtMTEuMTI3IFYgNTMuNiBsIDE2LjQzMyAtMTYuNDM0IGEgMTAuODMgMTAuODMgMCAwIDAgMCAtMTUuMzE0IEwgMzcuMTY2IDMuMTcyIGEgMTAuODMxIDEwLjgzMSAwIDAgMCAtMTUuMzE2IDAgTCAzLjE3MiAyMS44NTIgYSAxMC44MjggMTAuODI4IDAgMCAwIDAgMTUuMzE0IEwgMjAuOTA4IDU0LjkgdiAxLjUgbCAtNS4wNDkgNS4wNSBsIDUuMDA1IDUuMDA1IGwgLTUuMDA1IDUgbCA1LjAwNSA1LjAwNSBsIC01LjAwNSA1IGwgNS4wNDkgNS4wNSB2IDAuMDYzIGwgOC42IDguNiBsIDYuMDUxIC02LjA1MSBaIG0gLTQuOTIzIC02OC4wMTYgYSA2LjE0NyA2LjE0NyAwIDEgMSA2LjE0NyA2LjE0NyBhIDYuMTQ4IDYuMTQ4IDAgMCAxIC02LjE0NyAtNi4xNDcgWiIvPiYjeGE7PHBhdGggY2xhc3M9Im1zcG9ydGFsZngtc3ZnLWMwMSIgb3BhY2l0eT0iMC41IiBmaWxsPSIjZmZmZmZmIiBkPSJNIDEyLjM2NCAyNS45MiBoIDM1LjQ4MiB2IDUuMSBIIDEyLjM2NCBaIG0gMCA4LjI5NyBoIDM1LjQ4MiB2IDUuMSBIIDEyLjM2NCBaIi8+JiN4YTs8cGF0aCBjbGFzcz0ibXNwb3J0YWxmeC1zdmctYzE1IiBmaWxsPSIjNTliNGQ5IiBkPSJNIDU0LjMgMTAwIGEgMy45NzggMy45NzggMCAwIDEgLTIuODM1IC0xLjE3NSBMIDMzLjczNSA4MS4xIGEgNC4wMDggNC4wMDggMCAwIDEgMCAtNS42NyBMIDUxLjQ2MSA1Ny43IGEgNC4wMDUgNC4wMDUgMCAwIDEgNS42NyAwIGwgMTcuNzI0IDE3LjcyOSBhIDQuMDA2IDQuMDA2IDAgMCAxIDAgNS42NzIgTCA1Ny4xMzEgOTguODI1IEEgMy45NzggMy45NzggMCAwIDEgNTQuMyAxMDAiLz4mI3hhOzxwYXRoIGNsYXNzPSJtc3BvcnRhbGZ4LXN2Zy1jMDEiIGZpbGw9IiNmZmZmZmYiIGQ9Ik0gNjYuMTMyIDc0Ljg2NyBhIDMuMzkzIDMuMzkzIDAgMCAwIC0yLjgzOSA1LjI2MiBsIC02LjczMyA2LjczMiBhIDMuOTkxIDMuOTkxIDAgMCAwIC0wLjU3IC0wLjMyNCBWIDY5LjM2IGEgMy40IDMuNCAwIDEgMCAtMy4zODggMCB2IDE3LjE3NiBhIDMuOTI5IDMuOTI5IDAgMCAwIC0wLjU1IDAuMzA3IGwgLTYuNzQgLTYuNzQgYSAzLjQ5MyAzLjQ5MyAwIDEgMCAtMS43NDQgMS4zNjEgbCA3LjA4NSA3LjA4NiBhIDMuOTU3IDMuOTU3IDAgMSAwIDcuMjkyIDAuMDI4IGwgNy4xMDYgLTcuMTA1IGEgMy4zNTYgMy4zNTYgMCAwIDAgMS4wNzkgMC4xOTEgYSAzLjQgMy40IDAgMCAwIDAgLTYuOCBaIi8+JiN4YTs8cGF0aCBjbGFzcz0ibXNwb3J0YWxmeC1zdmctYzAxIiBvcGFjaXR5PSIwLjUiIGZpbGw9IiNmZmZmZmYiIGQ9Ik0gNTMuNDg0IDY3LjA5MiBsIDEuNTUgLTEuNTUyIGwgMTIuNzE0IDEyLjcxIGwgLTEuNTUyIDEuNTUxIFoiLz4mI3hhOzxwYXRoIGNsYXNzPSJtc3BvcnRhbGZ4LXN2Zy1jMDEiIG9wYWNpdHk9IjAuNSIgZmlsbD0iI2ZmZmZmZiIgZD0iTSA0MC44NTkgNzguMjYyIEwgNTMuNTcgNjUuNTUgbCAxLjU1MiAxLjU1MSBMIDQyLjQxIDc5LjgxMyBaIi8+JiN4YTs8cGF0aCBjbGFzcz0ibXNwb3J0YWxmeC1zdmctYzEzIiBmaWxsPSIjYjhkNDMyIiBkPSJNIDU2LjYxMiA5MC4xIGEgMi4zNTYgMi4zNTYgMCAxIDEgLTIuMzU2IC0yLjM1NSBhIDIuMzU1IDIuMzU1IDAgMCAxIDIuMzU2IDIuMzU1IG0gLTAuNDI3IC0yMy42NyBhIDEuODkgMS44OSAwIDEgMSAtMS44OSAtMS44OSBhIDEuODg5IDEuODg5IDAgMCAxIDEuODkgMS44OSBNIDQ0LjM1MiA3OC4yNjUgYSAxLjg5IDEuODkgMCAxIDEgLTEuODkgLTEuODkgYSAxLjg5MSAxLjg5MSAwIDAgMSAxLjg5IDEuODkgbSAyMy42NyAwIGEgMS44OTEgMS44OTEgMCAxIDEgLTEuODkxIC0xLjg5IGEgMS44OTEgMS44OTEgMCAwIDEgMS44OTEgMS44OSIvPiYjeGE7PHBhdGggY2xhc3M9Im1zcG9ydGFsZngtc3ZnLWMwMSIgb3BhY2l0eT0iMC4xIiBmaWxsPSIjZmZmZmZmIiBkPSJNIDU3LjEzMSA1Ny43IGEgNCA0IDAgMCAwIC01LjY2OSAwIEwgMzMuNzM1IDc1LjQyOSBhIDQuMDA4IDQuMDA4IDAgMCAwIDAgNS42NyBsIDEwLjAzNiAxMC4wMzYgTCA2Mi42NSA2My4yMjIgWiIvPiYjeGE7PHBhdGggY2xhc3M9Im1zcG9ydGFsZngtc3ZnLWMxMCIgb3BhY2l0eT0iMC40IiBmaWxsPSIjZmY4YzAwIiBkPSJNIDM0Ljc4OCA2OC4xMzcgdiAtMTIuOTIgbCAtMy44NjQgMS45MDMgdiAxNC44ODEgbCAzLjg2NCAtMy44NjQgWiIvPiYjeGE7PC9nPiYjeGE7PC9zdmc+;align=left;labelPosition=right;" parent="1" vertex="1">
                    <mxGeometry x="732.54" y="242.6" width="30.4" height="40" as="geometry"/>
                </mxCell>
                <mxCell id="6TbM0mQEEboQS2Itlm_B-39" value="Kubernetes Control Plane" style="html=1;dashed=0;whitespace=wrap;fillColor=#2875E2;strokeColor=#ffffff;points=[[0.005,0.63,0],[0.1,0.2,0],[0.9,0.2,0],[0.5,0,0],[0.995,0.63,0],[0.72,0.99,0],[0.5,1,0],[0.28,0.99,0]];shape=mxgraph.kubernetes.icon;prIcon=master;fontSize=12;align=center;labelPosition=center;verticalLabelPosition=bottom;verticalAlign=top;" parent="1" vertex="1">
                    <mxGeometry x="772.94" y="152" width="50" height="48" as="geometry"/>
                </mxCell>
                <mxCell id="6TbM0mQEEboQS2Itlm_B-43" style="edgeStyle=orthogonalEdgeStyle;rounded=0;orthogonalLoop=1;jettySize=auto;html=1;entryX=0.5;entryY=0;entryDx=0;entryDy=0;endArrow=classic;endFill=1;strokeColor=#000000;" parent="1" source="6TbM0mQEEboQS2Itlm_B-41" target="6TbM0mQEEboQS2Itlm_B-9" edge="1">
                    <mxGeometry relative="1" as="geometry">
                        <Array as="points">
                            <mxPoint x="140" y="550"/>
                            <mxPoint x="100" y="550"/>
                        </Array>
                    </mxGeometry>
                </mxCell>
                <mxCell id="6TbM0mQEEboQS2Itlm_B-41" value="Service Endpoint Policy&#10;kkwebhostingfile&lt;env&gt;01st&#10;-service-endpoint-policy" style="shape=image;verticalLabelPosition=middle;labelBackgroundColor=#ffffff;verticalAlign=middle;aspect=fixed;imageAspect=0;image=data:image/svg+xml,PHN2ZyB4bWxucz0iaHR0cDovL3d3dy53My5vcmcvMjAwMC9zdmciIHhtbG5zOnhsaW5rPSJodHRwOi8vd3d3LnczLm9yZy8xOTk5L3hsaW5rIiB4bWxuczpzdmc9Imh0dHA6Ly93d3cudzMub3JnLzIwMDAvc3ZnIiBjbGFzcz0iZnhzLXBvcnRhbC1zdmciIGlkPSJGeFN5bWJvbDAtMDc3IiByb2xlPSJwcmVzZW50YXRpb24iIHZpZXdCb3g9IjAgMCA1MCA1MCIgZm9jdXNhYmxlPSJmYWxzZSI+JiN4YTs8Zz4mI3hhOzx0aXRsZS8+JiN4YTs8dGl0bGU+U2VydmljZUVuZHBvaW50c1BvbGljeTwvdGl0bGU+JiN4YTs8cGF0aCBjbGFzcz0ibXNwb3J0YWxmeC1zdmctYzAxIiBmaWxsPSIjZmZmZmZmIiBkPSJNIDM1LjUgNDcgYyAtMi4yMzYgMCAtNC41IC0xLjcxNyAtNC41IC01IGEgNS44MjEgNS44MjEgMCAwIDEgMS41NDcgLTQgSCAxMCBWIDkuOSBhIDcuODI0IDcuODI0IDAgMCAxIDggLTggaCAyNS42MTQgbCAtMS43MDcgMS43MDcgQSA4LjY2MSA4LjY2MSAwIDAgMCA0MCA4LjkgViA0MSBjIDAgMi43NjggLTEuMTc5IDYgLTQuNSA2IFoiLz4mI3hhOzxwYXRoIGQ9Ik0gNDMgMSBIIDE5IEMgMTMgMSA5IDQuOSA5IDEwLjkgViAzNyBIIDcuNSBhIDUuNSA1LjUgMCAwIDAgMCAxMSBIIDM2IGMgNCAwIDUgLTQgNSAtNiBWIDguOSBoIDYuNiBhIDcuODc2IDcuODc2IDAgMCAwIDAuNCAtMi4zIEMgNDggMy41IDQ1LjggMSA0MyAxIFogbSAtNCA3LjkgViA0MiBjIDAgMiAtMC41IDQgLTMuNSA0IGMgLTEuNyAwIC0zLjUgLTEuMyAtMy41IC00IGEgNS4wMyA1LjAzIDAgMCAxIDQgLTQuOSBWIDM3IEggMTEgViA5LjkgYSA2LjgzNSA2LjgzNSAwIDAgMSA3IC03IGggMjMuMiBhIDkuNjE4IDkuNjE4IDAgMCAwIC0yLjIgNiBaIi8+JiN4YTs8cGF0aCBjbGFzcz0ibXNwb3J0YWxmeC1zdmctYzE0IiBmaWxsPSIjN2ZiYTAwIiBkPSJNIDIxIDE4IGEgMiAyIDAgMSAxIC0yIC0yIGEgMiAyIDAgMCAxIDIgMiBaIG0gMTAgLTIgYSAyIDIgMCAxIDAgMiAyIGEgMiAyIDAgMCAwIC0yIC0yIFogbSAtNS4yNSAxMy42NDggdiAtOS44IGEgMiAyIDAgMSAwIC0xLjUgMCB2IDkuOCBhIDIgMiAwIDEgMCAxLjUgMCBaIi8+JiN4YTs8cGF0aCBjbGFzcz0ibXNwb3J0YWxmeC1zdmctYzE1IiBmaWxsPSIjNTliNGQ5IiBkPSJNIDIwIDI2IGEgMSAxIDAgMCAxIC0wLjcwNyAtMC4yOTMgbCAtNyAtNyBhIDEgMSAwIDAgMSAwIC0xLjQxNCBsIDcgLTcgYSAxIDEgMCAwIDEgMS40MTQgMS40MTQgTCAxNC40MTQgMTggbCA2LjI5MyA2LjI5MyBBIDEgMSAwIDAgMSAyMCAyNiBaIG0gMTAuNzA3IC0wLjI5MyBsIDcgLTcgYSAxIDEgMCAwIDAgMCAtMS40MTQgbCAtNyAtNyBhIDEgMSAwIDAgMCAtMS40MTQgMS40MTQgTCAzNS41ODYgMTggbCAtNi4yOTMgNi4yOTMgYSAxIDEgMCAxIDAgMS40MTQgMS40MTQgWiIvPiYjeGE7PC9nPiYjeGE7PC9zdmc+;fontSize=12;align=left;labelPosition=right;" parent="1" vertex="1">
                    <mxGeometry x="120.00999999999996" y="490" width="40" height="40" as="geometry"/>
                </mxCell>
                <mxCell id="6TbM0mQEEboQS2Itlm_B-49" value="Inserts Storage + SQL&lt;br&gt;Credentials" style="edgeStyle=orthogonalEdgeStyle;rounded=0;orthogonalLoop=1;jettySize=auto;html=1;entryX=0.5;entryY=1;entryDx=0;entryDy=0;endArrow=classic;endFill=1;strokeColor=#FF0000;" parent="1" source="6TbM0mQEEboQS2Itlm_B-48" target="6TbM0mQEEboQS2Itlm_B-8" edge="1">
                    <mxGeometry relative="1" as="geometry"/>
                </mxCell>
                <mxCell id="6TbM0mQEEboQS2Itlm_B-50" value="Provisions" style="edgeStyle=orthogonalEdgeStyle;rounded=0;orthogonalLoop=1;jettySize=auto;html=1;entryX=0.127;entryY=1.003;entryDx=0;entryDy=0;entryPerimeter=0;endArrow=classic;endFill=1;strokeColor=#FF0000;exitX=0;exitY=0.5;exitDx=0;exitDy=0;" parent="1" source="6TbM0mQEEboQS2Itlm_B-48" target="B11YAzN58tQJIFsV2nfx-3" edge="1">
                    <mxGeometry relative="1" as="geometry"/>
                </mxCell>
                <mxCell id="6TbM0mQEEboQS2Itlm_B-48" value="" style="shape=image;verticalLabelPosition=bottom;labelBackgroundColor=#ffffff;verticalAlign=top;aspect=fixed;imageAspect=0;image=data:image/svg+xml,PHN2ZyB4bWxucz0iaHR0cDovL3d3dy53My5vcmcvMjAwMC9zdmciIGlkPSJMT0dPUyIgdmlld0JveD0iMzAuNDIwMDAwMDc2MjkzOTQ1IDE5LjE4MDAwMDMwNTE3NTc4IDMxMi4zODAwMDQ4ODI4MTI1IDY5Ljg3OTk5NzI1MzQxNzk3IiB3aWR0aD0iMzEyLjM4MDAwNDg4MjgxMjUiIGhlaWdodD0iNjkuODc5OTk3MjUzNDE3OTciPjxkZWZzPjxzdHlsZT4uY2xzLTF7ZmlsbDojN2I0MmJjO2ZpbGwtcnVsZTpldmVub2RkO308L3N0eWxlPjwvZGVmcz48cGF0aCBkPSJNMTI4Ljg4LDQ1LjRIMTE3LjYzVjM4LjY4aDMwLjEyVjQ1LjRIMTM2LjVWNzloLTcuNjJaIi8+PHBhdGggZD0iTTE1NS43MSw3My41M2EzMC43NywzMC43NywwLDAsMCw5LTEuMzlsMS4xNSw1LjU2QTMxLjY1LDMxLjY1LDAsMCwxLDE1NSw3OS41OGMtOS4yNSwwLTEyLjQ2LTQuMy0xMi40Ni0xMS4zOFY2MC40YzAtNi4yMywyLjc4LTExLjQ5LDEyLjIyLTExLjQ5czExLjU2LDUuNSwxMS41NiwxMS44NXY2LjNIMTUwdjEuNTFDMTUwLDcyLjE0LDE1MS4yMyw3My41MywxNTUuNzEsNzMuNTNaTTE1MCw2MS4xM2g5LjM4VjU5LjY3YzAtMi43OC0uODUtNC43MS00LjQ4LTQuNzFzLTQuOSwxLjkzLTQuOSw0LjcxWiIvPjxwYXRoIGQ9Ik0xODYuMDgsNTUuNjhhNTYuNjYsNTYuNjYsMCwwLDAtNy44MSw0LjNWNzloLTcuMzhWNDkuNTFoNi4yM2wuNDksMy4yN2EzMi42NiwzMi42NiwwLDAsMSw3Ljc0LTMuODdaIi8+PHBhdGggZD0iTTIwNC4xLDU1LjY4YTU3LjE0LDU3LjE0LDAsMCwwLTcuOCw0LjNWNzloLTcuMzhWNDkuNTFoNi4yM2wuNDgsMy4yN2EzMi43NSwzMi43NSwwLDAsMSw3Ljc1LTMuODdaIi8+PHBhdGggZD0iTTIyOC43OCw3OWgtNi4wNWwtLjU0LTJhMTYuMTUsMTYuMTUsMCwwLDEtOC43NywyLjZjLTUuMzksMC03LjY5LTMuNjktNy42OS04Ljc3LDAtNiwyLjYxLTguMjksOC41OS04LjI5aDcuMDhWNTkuNDNjMC0zLjI2LS45LTQuNDEtNS42Mi00LjQxYTQxLjQ3LDQxLjQ3LDAsMCwwLTguMTcuOWwtLjkxLTUuNjJhMzguMzIsMzguMzIsMCwwLDEsMTAuMS0xLjM5YzkuMjYsMCwxMiwzLjI2LDEyLDEwLjY0Wk0yMjEuNCw2Ny44NEgyMTZjLTIuNDIsMC0zLjA5LjY3LTMuMDksMi45MSwwLDIsLjY3LDMsMywzYTExLjY4LDExLjY4LDAsMCwwLDUuNTYtMS41MVoiLz48cGF0aCBkPSJNMjUxLjQ3LDQyLjhhMjEuMTYsMjEuMTYsMCwwLDAtNC4yNC0uNDljLTIuOSwwLTMuMzIsMS4yNy0zLjMyLDMuNTF2My42OWg3LjVMMjUxLDU1LjM4aC03LjA3Vjc5aC03LjM4VjU1LjM4aC00LjcyVjQ5LjUxaDQuNzJWNDUuNGMwLTYuMTEsMi44NC05LjE0LDkuMzctOS4xNGEyMy41LDIzLjUsMCwwLDEsNi4zNS44NVoiLz48cGF0aCBkPSJNMjY1Ljg2LDc5LjU4QzI1NS43Niw3OS41OCwyNTMsNzQsMjUzLDY4VjYwLjUyYzAtNi4wNSwyLjcyLTExLjYxLDEyLjgyLTExLjYxczEyLjgzLDUuNTYsMTIuODMsMTEuNjFWNjhDMjc4LjY5LDc0LDI3Niw3OS41OCwyNjUuODYsNzkuNThabTAtMjQuMzhjLTMuOTMsMC01LjQ0LDEuNzUtNS40NCw1LjA4VjY4LjJjMCwzLjMzLDEuNTEsNS4wOSw1LjQ0LDUuMDlzNS40NS0xLjc2LDUuNDUtNS4wOVY2MC4yOEMyNzEuMzEsNTcsMjY5LjgsNTUuMiwyNjUuODYsNTUuMloiLz48cGF0aCBkPSJNMjk3LjY4LDU1LjY4YTU3LjE0LDU3LjE0LDAsMCwwLTcuOCw0LjNWNzlIMjgyLjVWNDkuNTFoNi4yM2wuNDgsMy4yN0EzMi45NCwzMi45NCwwLDAsMSwyOTcsNDguOTFaIi8+PHBhdGggZD0iTTMxOCw3OVY1OC40YzAtMS41Ny0uNjctMi4zNi0yLjM2LTIuMzZzLTUsMS4wOS03LjY4LDIuNDlWNzloLTcuMzlWNDkuNTFoNS42M2wuNzMsMi40OGEyOS41OSwyOS41OSwwLDAsMSwxMS43OS0zLjA4YzIuODUsMCw0LjYsMS4xNSw1LjU3LDMuMTRhMjksMjksMCwwLDEsMTEuODYtMy4xNGM0LjksMCw2LjY1LDMuNDQsNi42NSw4LjcxVjc5aC03LjM4VjU4LjRjMC0xLjU3LS42Ny0yLjM2LTIuMzYtMi4zNmExOS40MiwxOS40MiwwLDAsMC03LjY4LDIuNDlWNzlaIi8+PHBvbHlnb24gY2xhc3M9ImNscy0xIiBwb2ludHM9IjUxLjYyIDMxLjQ5IDcwLjcyIDQyLjUyIDcwLjcyIDY0LjU4IDUxLjYyIDUzLjU1IDUxLjYyIDMxLjQ5Ii8+PHBvbHlnb24gY2xhc3M9ImNscy0xIiBwb2ludHM9IjcyLjgxIDQyLjUyIDcyLjgxIDY0LjU4IDkxLjkyIDUzLjU1IDkxLjkyIDMxLjQ5IDcyLjgxIDQyLjUyIi8+PHBvbHlnb24gY2xhc3M9ImNscy0xIiBwb2ludHM9IjMwLjQyIDE5LjE4IDMwLjQyIDQxLjI0IDQ5LjUyIDUyLjI3IDQ5LjUyIDMwLjIxIDMwLjQyIDE5LjE4Ii8+PHBvbHlnb24gY2xhc3M9ImNscy0xIiBwb2ludHM9IjUxLjYyIDc4LjAzIDcwLjcyIDg5LjA2IDcwLjcyIDY3LjE0IDcwLjcyIDY3IDUxLjYyIDU1Ljk3IDUxLjYyIDc4LjAzIi8+PC9zdmc+;" parent="1" vertex="1">
                    <mxGeometry x="222.58000000000004" y="780" width="178.28" height="40" as="geometry"/>
                </mxCell>
                <mxCell id="6TbM0mQEEboQS2Itlm_B-56" value="Inserts secrets" style="edgeStyle=none;rounded=0;orthogonalLoop=1;jettySize=auto;html=1;endArrow=classic;endFill=1;strokeColor=#FF0000;" parent="1" source="6TbM0mQEEboQS2Itlm_B-55" target="6TbM0mQEEboQS2Itlm_B-7" edge="1">
                    <mxGeometry relative="1" as="geometry"/>
                </mxCell>
                <mxCell id="6TbM0mQEEboQS2Itlm_B-55" value="Deployment Script" style="rounded=0;whiteSpace=wrap;html=1;strokeWidth=1;align=left;" parent="1" vertex="1">
                    <mxGeometry x="470" y="770" width="70" height="30" as="geometry"/>
                </mxCell>
                <mxCell id="6TbM0mQEEboQS2Itlm_B-57" value="Platform Environment" style="text;html=1;align=left;verticalAlign=middle;resizable=0;points=[];autosize=1;strokeColor=none;fontFamily=Helvetica;fontSize=14;fontStyle=4" parent="1" vertex="1">
                    <mxGeometry x="200" y="252.60000000000002" width="150" height="20" as="geometry"/>
                </mxCell>
                <mxCell id="6TbM0mQEEboQS2Itlm_B-58" value="Machine Created AKS Resources" style="text;html=1;align=left;verticalAlign=middle;resizable=0;points=[];autosize=1;strokeColor=none;fontFamily=Helvetica;fontSize=14;fontStyle=4" parent="1" vertex="1">
                    <mxGeometry x="835" y="374" width="220" height="20" as="geometry"/>
                </mxCell>
            </root>
        </mxGraphModel>
    </diagram>
</mxfile>
